<svg width="1024" height="1024" viewBox="0 0 1024 1024" fill="none" xmlns="http://www.w3.org/2000/svg">
<rect x="67" y="74" width="879" height="843" fill="white"/>
<path d="M909.257 0H114.743C51.8857 0 0 51.8857 0 114.743V909.257C0 972.114 51.8857 1024 114.743 1024H909.257C972.114 1024 1024 972.114 1024 909.257V114.743C1024 51.8857 972.114 0 909.257 0ZM805.486 649.829C805.486 659.429 797.257 663.543 787.657 667.657C749.486 684.114 708.571 698.971 664.686 698.971C603.2 698.971 574.629 660.8 500.8 660.8C447.543 660.8 391.543 680 346.514 700.343C343.771 701.714 341.029 701.714 338.286 703.086V806.857C338.286 810.971 338.286 815.086 336.914 817.829V820.571C331.429 839.771 313.6 853.257 293.257 853.257C267.429 853.257 246.857 832.686 246.857 806.857V307.2C229.029 293.486 216.914 271.771 216.914 247.086C216.914 204.8 250.971 170.514 293.486 170.514C335.771 170.514 370.057 204.571 370.057 247.086C370.057 271.771 359.086 293.486 340.114 307.2V349.486C344.229 348.114 348.343 346.743 352.457 344C394.743 326.171 445.257 311.314 493.029 311.314C544.914 311.314 585.829 325.029 632.229 342.629C641.829 346.743 651.429 348.114 662.171 348.114C714.057 348.114 771.429 311.314 785.143 311.314C796.114 311.314 805.714 319.543 805.714 329.143V649.829H805.486Z" fill="#339AF0"/>
</svg>
