<svg width="512" height="512" viewBox="0 0 512 512" fill="none" xmlns="http://www.w3.org/2000/svg">
<path d="M512 0H0V512H512V0Z" fill="#F7DF1E"/>
<path d="M134.623 427.864L173.806 404.152C181.365 417.554 188.241 428.894 204.735 428.894C220.545 428.894 230.513 422.709 230.513 398.653V235.057H278.628V399.334C278.628 449.168 249.416 471.852 206.797 471.852C168.307 471.852 145.965 451.917 134.623 427.86" fill="black"/>
<path d="M304.762 422.709L343.939 400.025C354.252 416.868 367.656 429.24 391.369 429.24C411.306 429.24 424.018 419.272 424.018 405.524C424.018 389.028 410.959 383.184 388.963 373.564L376.937 368.405C342.222 353.63 319.194 335.071 319.194 295.89C319.194 259.804 346.689 232.307 389.651 232.307C420.239 232.307 442.235 242.962 458.043 270.801L420.581 294.858C412.332 280.081 403.398 274.239 389.651 274.239C375.56 274.239 366.623 283.175 366.623 294.858C366.623 309.294 375.56 315.137 396.179 324.074L408.207 329.228C449.106 346.757 472.134 364.627 472.134 404.837C472.134 448.143 438.109 471.856 392.4 471.856C347.721 471.856 318.851 450.549 304.762 422.709" fill="black"/>
</svg>
