<svg width="1024" height="1024" viewBox="0 0 1024 1024" fill="none" xmlns="http://www.w3.org/2000/svg">
<g clip-path="url(#clip0)">
<path d="M1023.93 283.628C1023.87 273.329 1023.75 263.036 1023.47 252.725C1022.87 230.297 1021.54 207.666 1017.56 185.478C1013.51 162.944 1006.9 141.992 996.48 121.523C986.25 101.421 972.878 83.0257 956.926 67.0737C940.977 51.1216 922.582 37.7507 902.471 27.516C882.019 17.1072 861.063 10.4967 838.551 6.45185C816.35 2.45349 793.719 1.13623 771.274 0.52932C760.968 0.250005 750.673 0.132761 740.371 0.0689668C728.144 0 715.907 0 703.683 0H432.616H320.319C308.082 0 295.86 0 283.635 0.070691C273.33 0.134485 263.023 0.251729 252.733 0.531044C247.123 0.682771 241.5 0.879327 235.874 1.15002C218.998 1.96383 202.096 3.45524 185.454 6.45357C168.569 9.48811 152.559 13.9641 136.983 20.4038C131.791 22.5487 126.646 24.9143 121.532 27.516C106.449 35.192 92.3283 44.6319 79.4849 55.601C75.2038 59.258 71.0641 63.0839 67.0778 67.0719C51.1223 83.024 37.7496 101.419 27.5201 121.521C17.0993 141.991 10.4957 162.943 6.44733 185.476C2.4645 207.664 1.14033 230.296 0.536874 252.724C0.25411 263.034 0.135142 273.328 0.0678997 283.626C-0.00968792 295.857 0.000657101 308.09 0.000657101 320.318V487.251V703.677C0.000657101 715.917 -0.0114121 728.138 0.0678997 740.378C0.135142 750.676 0.25411 760.969 0.536874 771.263C1.14033 793.703 2.46277 816.339 6.44733 838.517C10.4957 861.044 17.0993 882.015 27.5201 902.479C37.7496 922.586 51.1223 940.976 67.0778 956.921C83.0212 972.88 101.422 986.25 121.534 996.491C141.988 1006.9 162.942 1013.5 185.459 1017.55C207.646 1021.54 230.295 1022.87 252.735 1023.47C263.025 1023.74 273.332 1023.87 283.637 1023.92C295.861 1024.01 308.084 1024 320.32 1024H703.683C715.907 1024 728.144 1024.01 740.37 1023.92C750.672 1023.87 760.967 1023.74 771.272 1023.47C793.717 1022.87 816.349 1021.54 838.549 1017.55C861.062 1013.5 882.017 1006.9 902.469 996.491C922.58 986.251 940.975 972.88 956.924 956.921C972.876 940.975 986.25 922.586 996.478 902.479C1006.9 882.015 1013.51 861.045 1017.56 838.517C1021.54 816.339 1022.87 793.703 1023.47 771.263C1023.75 760.969 1023.86 750.678 1023.93 740.378C1024.01 728.138 1024 715.917 1024 703.677V320.318C1024 308.09 1024.01 295.857 1023.93 283.628Z" fill="#F05138"/>
<path d="M811.386 632.1C811.362 632.069 811.34 632.046 811.314 632.017C812.446 628.162 813.615 624.331 814.607 620.379C857.108 451.05 753.38 250.856 577.851 145.449C654.771 249.725 688.782 376.028 658.564 486.481C655.869 496.333 652.63 505.789 649.049 514.979C645.162 512.425 640.266 509.527 633.69 505.901C633.69 505.901 459.085 398.094 269.841 207.409C264.876 202.404 370.754 358.739 490.913 485.688C434.301 453.917 276.533 339.127 176.655 247.713C188.926 268.177 203.521 287.883 219.565 306.854C302.971 412.63 411.744 543.141 542.059 643.359C450.498 699.391 321.122 703.748 192.307 643.417C160.446 628.486 130.494 610.47 102.768 590.001C157.294 677.218 241.274 752.467 343.484 796.398C465.374 848.78 586.585 845.228 676.863 797.256L676.792 797.36C677.204 797.099 677.728 796.815 678.156 796.551C681.863 794.558 685.542 792.529 689.141 790.385C732.516 767.871 818.19 745.029 864.175 834.503C875.437 856.4 899.369 740.357 811.386 632.1Z" fill="white"/>
</g>
<defs>
<clipPath id="clip0">
<rect width="1024" height="1024" fill="white"/>
</clipPath>
</defs>
</svg>
