<svg viewBox="0 0 32 56" fill="none" xmlns="http://www.w3.org/2000/svg">
<path fill-rule="evenodd" clip-rule="evenodd" d="M32 24H0V32C0 36.4183 3.58172 40 8 40L12 40V56H20V40L24 40C28.4183 40 32 36.4183 32 32V24Z" fill="#E3E1DA"/>
<path d="M29 24L3 24L3 4C3 1.79086 4.79086 -2.09081e-07 7 -1.59525e-08L25 1.55766e-06C27.2091 1.75079e-06 29 1.79086 29 4L29 24Z" fill="#EDEBE4"/>
<rect x="27" y="14" width="22" height="12" rx="2" transform="rotate(-180 27 14)" fill="#FCFCFA"/>
<rect x="7" y="4" width="2" height="8" rx="1" fill="#FFDD5F"/>
<rect x="11" y="4" width="2" height="8" rx="1" fill="#FFDD5F"/>
<rect x="15" y="4" width="2" height="8" rx="1" fill="#FFDD5F"/>
<rect x="19" y="4" width="2" height="8" rx="1" fill="#FFDD5F"/>
<rect x="23" y="4" width="2" height="8" rx="1" fill="#FFDD5F"/>
<path d="M17.488 26.6027C17.5447 26.3624 17.3967 26.121 17.1387 26.0331C16.8807 25.9453 16.5891 26.037 16.4507 26.2495L12.3257 32.5828C12.2249 32.7375 12.2248 32.9282 12.3252 33.0831C12.4256 33.2379 12.6114 33.3333 12.8125 33.3333H15.4713L14.512 37.3973C14.4553 37.6376 14.6033 37.879 14.8613 37.9669C15.1193 38.0547 15.4109 37.963 15.5493 37.7505L19.6743 31.4172C19.7751 31.2625 19.7752 31.0718 19.6748 30.9169C19.5744 30.7621 19.3886 30.6667 19.1875 30.6667H16.5287L17.488 26.6027Z" fill="#D4D1C7"/>
</svg>
