<svg viewBox="0 0 512 512" fill="none" xmlns="http://www.w3.org/2000/svg">
<g clip-path="url(#clip0)">
<path fill-rule="evenodd" clip-rule="evenodd" d="M414.496 164.748C431.926 153.086 452.883 146.286 475.429 146.286C495.626 146.286 512 129.912 512 109.714C512 89.5161 495.626 73.1428 475.429 73.1428C434.263 73.1428 396.275 86.7454 365.714 109.701C335.153 86.7454 297.165 73.1428 256 73.1428C214.835 73.1428 176.847 86.7454 146.286 109.701C115.725 86.7454 77.7366 73.1428 36.5715 73.1428C16.3739 73.1428 1.45545e-05 89.5161 1.27887e-05 109.714C1.10229e-05 129.912 16.3739 146.286 36.5714 146.286C59.1171 146.286 80.0743 153.086 97.504 164.748C82.0086 191.603 73.1429 222.766 73.1429 256C73.1429 289.234 82.0086 320.397 97.504 347.252C80.0743 358.914 59.1171 365.714 36.5714 365.714C16.3739 365.714 0 382.087 0 402.286C-1.46413e-06 422.484 16.3739 438.857 36.5714 438.857C77.7366 438.857 115.725 425.254 146.286 402.299C176.847 425.254 214.835 438.857 256 438.857C297.165 438.857 335.153 425.254 365.714 402.299C396.275 425.254 434.263 438.857 475.429 438.857C495.626 438.857 512 422.484 512 402.286C512 382.087 495.626 365.714 475.429 365.714C452.883 365.714 431.926 358.914 414.496 347.252C429.991 320.397 438.857 289.234 438.857 256C438.857 222.766 429.991 191.604 414.496 164.748ZM219.429 256C219.429 289.234 210.563 320.397 195.067 347.252C212.497 358.914 233.454 365.714 256 365.714C278.546 365.714 299.503 358.914 316.933 347.252C301.437 320.397 292.571 289.234 292.571 256C292.571 222.766 301.437 191.603 316.933 164.748C299.503 153.086 278.546 146.286 256 146.286C233.454 146.286 212.497 153.086 195.067 164.748C210.563 191.604 219.429 222.766 219.429 256Z" fill="#333230"/>
</g>
<defs>
<clipPath id="clip0">
<rect width="512" height="512" fill="white"/>
</clipPath>
</defs>
</svg>
