<svg viewBox="0 0 560 400" fill="none" xmlns="http://www.w3.org/2000/svg">
<path fill-rule="evenodd" clip-rule="evenodd" d="M453.355 100.193C472.419 87.438 495.341 80 520 80C542.091 80 560 62.0917 560 40C560 17.9083 542.091 1.74846e-05 520 1.74846e-05C474.976 1.74846e-05 433.426 14.8778 400 39.9854C366.574 14.8778 325.024 2.14405e-05 280 2.62268e-05C234.976 2.26633e-05 193.426 14.8778 160 39.9853C126.574 14.8778 85.0243 3.93614e-06 40 0C17.909 -1.93126e-06 1.5919e-05 17.9083 1.39876e-05 40C1.20563e-05 62.0917 17.9089 80 40 80C64.6593 80 87.5813 87.438 106.645 100.193C89.6969 129.567 80 163.651 80 200C80 236.349 89.6969 270.433 106.645 299.807C87.5813 312.562 64.6593 320 40 320C17.9089 320 0 337.908 0 360C-1.60139e-06 382.092 17.9089 400 40 400C85.0242 400 126.574 385.122 160 360.015C193.426 385.122 234.976 400 280 400C325.024 400 366.574 385.122 400 360.015C433.426 385.122 474.976 400 520 400C542.091 400 560 382.092 560 360C560 337.908 542.091 320 520 320C495.341 320 472.419 312.562 453.355 299.807C470.303 270.433 480 236.349 480 200C480 163.651 470.303 129.567 453.355 100.193ZM240 200C240 236.349 230.303 270.433 213.355 299.807C232.419 312.562 255.341 320 280 320C304.659 320 327.581 312.562 346.645 299.807C329.697 270.433 320 236.349 320 200C320 163.651 329.697 129.567 346.645 100.193C327.581 87.438 304.659 80 280 80C255.341 80 232.419 87.438 213.355 100.193C230.303 129.567 240 163.651 240 200Z" fill="#F2CB3D"/>
<path d="M160 200L240 200C240 310.457 150.457 400 40 400C17.9089 400 -1.60139e-06 382.092 0 360C0 337.908 17.9089 320 40 320C106.274 320 160 266.274 160 200Z" fill="#52524E"/>
<path d="M280 400V320C213.726 320 160 266.274 160 200H80C80 310.457 169.543 400 280 400Z" fill="#797873"/>
<path d="M480 200L400 200C400 266.274 346.274 320 280 320L280 400C390.457 400 480 310.457 480 200Z" fill="#52524E"/>
<path d="M80 200L160 200C160 133.726 213.726 80 280 80L280 8.74228e-06C169.543 -9.14175e-07 80 89.543 80 200Z" fill="#52524E"/>
<path d="M400 200C400 266.274 453.726 320 520 320C542.091 320 560 337.908 560 360C560 382.092 542.091 400 520 400C409.543 400 320 310.457 320 200H400Z" fill="#797873"/>
<path d="M160 200C160 133.726 106.274 80 40 80C17.909 80 3.49445e-05 62.0917 3.68758e-05 40C3.88071e-05 17.9083 17.909 -1.94158e-05 40.0001 -1.74846e-05C150.457 -7.8281e-06 240 89.543 240 200L160 200Z" fill="#797873"/>
<path d="M560 40C560 62.0917 542.091 80 520 80C453.726 80 400 133.726 400 200H320C320 89.543 409.543 0 520 0C542.091 0 560 17.9083 560 40Z" fill="#52524E"/>
<path d="M280 -1.74846e-05L280 80C346.274 80 400 133.726 400 200L480 200C480 89.543 390.457 -2.99987e-06 280 -1.74846e-05Z" fill="#797873"/>
</svg>
