<svg width="1024" height="1024" viewBox="0 0 1024 1024" fill="none" xmlns="http://www.w3.org/2000/svg">
<g clip-path="url(#clip0)">
<path d="M935.22 462.584C935.22 410.392 873.786 364.108 779.325 335.853C802.05 239.876 792.127 163.52 746.903 137.689C735.815 131.53 723.301 128.395 710.619 128.598C668.425 128.598 615.097 158.066 561.238 209.046C507.379 158.444 454.202 129.129 412.085 129.129C399.205 128.844 386.488 132.037 375.27 138.37C330.274 164.277 320.956 240.179 343.379 335.701C249.372 363.805 188.241 409.71 188.089 461.675C187.938 513.64 249.599 560.151 344.06 588.33C321.335 684.382 331.183 760.664 376.482 786.495C387.529 792.688 400.028 795.825 412.691 795.585C454.96 795.585 508.288 766.118 562.147 715.137C615.93 765.739 669.107 795.054 711.3 795.054C724.174 795.291 736.88 792.102 748.115 785.813C793.111 759.906 802.353 684.004 780.006 588.861C874.013 560.378 935.144 514.473 935.22 462.584ZM595.932 226.166C657.972 170.64 696.756 164.656 710.543 164.656C716.937 164.45 723.268 165.968 728.875 169.049C750.539 181.397 759.175 224.954 752.282 282.676C750.516 297.417 747.988 312.056 744.707 326.535C713.317 319.239 681.484 314.001 649.412 310.855C630.313 284.054 609.461 258.546 586.993 234.498C589.796 231.695 592.826 228.893 595.932 226.166ZM408.146 505.535C414.054 516.897 420.341 528.26 426.856 539.698C433.371 551.137 440.188 562.727 447.763 574.165C427.235 571.211 407.312 567.499 388.375 563.105C393.677 543.865 400.419 524.927 408.146 505.535ZM387.163 361.305C406.328 356.836 426.402 353.124 447.233 350.245C439.658 361.457 433.143 372.971 426.326 385.015C419.508 397.059 413.524 407.74 407.691 419.255C399.964 399.559 393.122 380.243 387.163 361.305ZM426.629 462.357C436.022 442.51 446.349 422.663 457.611 402.817C468.974 382.97 481.169 363.653 493.744 345.17C515.788 343.504 538.513 342.595 561.92 342.67C585.327 342.746 607.37 343.579 629.262 345.322C641.837 363.653 653.881 383.197 665.244 402.514C676.607 421.83 687.06 442.055 696.453 461.826C687.136 481.673 676.758 501.596 665.547 521.291C654.336 540.986 641.988 560.53 629.414 579.013C607.37 580.755 584.645 581.589 561.238 581.589C537.831 581.589 515.787 580.604 493.895 578.862C481.321 560.53 469.201 541.441 457.838 521.67C446.476 501.899 436.401 482.128 426.932 462.357H426.629ZM675.546 350.473C696.15 353.351 716.073 357.063 734.935 361.457C729.329 380.167 722.663 399.332 714.936 418.648C708.952 407.286 702.741 395.923 696.15 384.485C689.56 373.046 682.591 361.532 675.849 350.473H675.546ZM696.453 539.244C702.968 527.78 709.179 516.342 715.088 504.929C722.663 524.624 730.238 544.016 735.541 562.954C716.451 567.423 696.378 571.059 675.546 573.938C682.869 562.727 689.939 551.162 696.756 539.244H696.453ZM561.39 260.253C575.025 274.798 588.433 290.554 601.538 307.446C588.584 306.916 575.328 306.537 561.92 306.537C548.512 306.537 534.801 306.537 521.545 307.446C534.498 290.63 547.754 274.798 561.39 260.253ZM393.374 169.352C399.121 166.296 405.581 164.831 412.085 165.11C425.733 165.679 439.116 169.057 451.399 175.034C479.16 188.122 504.716 205.449 527.15 226.393L536.013 234.498C513.775 258.37 493.126 283.674 474.2 310.249C441.955 313.373 409.946 318.585 378.375 325.854C375.042 311.158 372.315 296.765 370.8 282.903C362.922 225.711 372.012 182.079 393.298 169.655L393.374 169.352ZM353.302 553.409C339.069 549.064 325.063 544.008 311.336 538.259C257.553 515.534 224.223 486.37 224.223 461.448C224.223 436.526 257.704 407.513 311.412 385.167C324.894 379.582 338.647 374.678 352.62 370.471C362.09 401.854 373.629 432.575 387.163 462.432C373.917 491.993 362.607 522.382 353.302 553.409ZM527.529 698.093C465.489 753.619 426.705 759.527 412.842 759.527C406.447 759.74 400.114 758.222 394.51 755.134C372.846 742.786 364.21 699.23 371.103 641.507C372.863 626.791 375.391 612.176 378.678 597.723C410.077 604.956 441.907 610.169 473.973 613.328C493.049 640.147 513.902 665.657 536.392 689.685L527.529 698.093ZM562.147 663.93C548.512 649.386 535.104 633.629 521.923 616.737C534.952 617.343 548.209 617.646 561.617 617.646C575.025 617.646 588.736 617.646 601.992 616.813C588.887 633.629 575.555 649.386 562.071 663.93H562.147ZM730.162 754.831C724.415 757.979 717.926 759.523 711.376 759.3C697.59 759.3 658.351 753.24 596.538 697.942L587.675 689.836C609.888 665.963 630.511 640.659 649.412 614.086C681.688 611.006 713.725 605.793 745.313 598.481C748.646 613.177 751.297 627.569 752.888 641.432C760.387 698.548 751.676 742.18 730.087 754.528L730.162 754.831ZM811.973 539.395C799.02 544.698 785.309 549.622 770.765 554.015C761.258 522.634 749.693 491.914 736.147 462.054C749.453 432.527 760.814 402.162 770.159 371.153C784.392 375.498 798.398 380.554 812.125 386.303C865.832 409.028 899.238 438.192 899.163 463.114C899.087 488.036 865.681 516.746 811.898 539.092L811.973 539.395ZM561.39 531.669C575.143 531.684 588.592 527.62 600.036 519.991C611.48 512.363 620.405 501.512 625.682 488.811C630.959 476.11 632.352 462.13 629.683 448.637C627.015 435.145 620.405 422.747 610.69 413.011C600.976 403.276 588.592 396.639 575.106 393.941C561.62 391.243 547.636 392.605 534.924 397.855C522.211 403.104 511.341 412.005 503.688 423.433C496.034 434.86 491.941 448.3 491.926 462.054C491.906 471.189 493.688 480.238 497.17 488.683C500.652 497.128 505.766 504.803 512.218 511.27C518.67 517.736 526.334 522.866 534.772 526.367C543.21 529.867 552.255 531.669 561.39 531.669V531.669ZM99.3094 43V881.183H1024V43H99.3094ZM987.867 845.126H135.518V79.1332H987.867V845.126ZM343.985 588.33C321.259 684.382 331.107 760.664 376.406 786.495C387.454 792.688 399.952 795.825 412.615 795.585C454.884 795.585 508.212 766.118 562.071 715.137C615.854 765.739 669.031 795.054 711.225 795.054C724.098 795.291 736.804 792.102 748.04 785.813C793.036 759.906 802.277 684.004 779.931 588.861C873.938 560.681 935.068 514.776 935.144 462.887C935.22 410.998 873.71 364.411 779.249 336.156C801.974 240.179 792.051 163.823 746.828 137.992C735.739 131.833 723.226 128.698 710.543 128.901C668.35 128.901 615.021 158.369 561.162 209.349C507.303 158.747 454.126 129.432 412.009 129.432C399.13 129.147 386.412 132.34 375.194 138.673C330.198 164.58 320.881 240.482 343.303 336.004C249.296 364.108 188.165 410.013 188.014 461.978C187.862 513.943 249.599 560 344.06 588.33H343.985ZM527.377 698.093C465.337 753.619 426.553 759.527 412.691 759.527C406.296 759.74 399.962 758.222 394.359 755.134C372.694 742.786 364.059 699.23 370.952 641.507C372.711 626.791 375.24 612.176 378.527 597.723C409.926 604.956 441.756 610.169 473.822 613.328C492.897 640.147 513.75 665.657 536.24 689.685L527.377 698.093ZM715.164 418.648C709.179 407.286 702.968 395.923 696.378 384.485C689.787 373.046 682.742 361.76 675.773 350.473C696.378 353.351 716.3 357.063 735.162 361.457C729.632 380.167 722.966 399.332 715.239 418.648H715.164ZM735.768 562.575C716.679 567.044 696.605 570.68 675.773 573.559C682.894 562.348 689.863 550.783 696.681 538.865C703.498 526.947 709.71 515.509 715.315 504.55C723.269 524.624 730.162 543.865 735.616 562.954L735.768 562.575ZM696.302 461.448C686.984 481.294 676.607 501.217 665.395 520.912C654.184 540.607 641.837 560.151 629.262 578.634C607.219 580.377 584.494 581.21 561.087 581.21C537.68 581.21 515.636 580.225 493.744 578.483C481.169 560.151 469.049 541.062 457.687 521.291C446.324 501.52 435.946 481.749 426.477 461.978C435.87 442.131 446.198 422.285 457.459 402.438C468.822 382.591 481.018 363.275 493.593 344.791C515.636 343.125 538.361 342.216 561.768 342.292C585.175 342.367 607.219 343.201 629.111 344.943C641.685 363.275 653.73 382.818 665.092 402.135C676.455 421.451 686.984 442.055 696.378 461.826L696.302 461.448ZM447.763 574.165C427.235 571.211 407.312 567.499 388.375 563.105C393.98 544.471 400.722 525.23 408.449 505.913C414.357 517.276 420.644 528.639 427.159 540.077C433.674 551.515 440.188 562.727 447.763 574.165ZM426.629 384.788C420.038 396.15 413.827 407.513 407.994 419.027C400.065 399.483 393.122 380.243 387.163 361.305C406.328 356.836 426.402 353.124 447.233 350.245C440.188 361.457 433.446 373.046 426.629 384.788ZM562.071 663.93C548.436 649.386 535.028 633.629 521.848 616.737C534.877 617.343 548.133 617.646 561.541 617.646C574.949 617.646 588.66 617.646 601.916 616.813C588.887 633.629 575.555 649.386 562.071 663.93ZM730.087 754.831C724.339 757.979 717.85 759.523 711.3 759.3C697.514 759.3 658.275 753.24 596.462 697.942L587.599 689.836C609.812 665.963 630.436 640.659 649.336 614.086C681.612 611.006 713.649 605.793 745.237 598.481C748.57 613.177 751.221 627.569 752.812 641.432C760.387 698.548 751.676 742.18 730.087 754.528V754.831ZM770.083 371.077C784.316 375.422 798.323 380.479 812.049 386.227C865.756 408.952 899.163 438.116 899.087 463.038C899.011 487.961 865.681 517.276 811.898 539.623C798.944 544.925 785.233 549.849 770.689 554.243C761.182 522.862 749.618 492.141 736.071 462.281C749.402 432.557 760.764 401.989 770.083 370.774V371.077ZM595.856 226.469C657.896 170.943 696.681 164.959 710.467 164.959C716.861 164.753 723.193 166.271 728.799 169.352C750.464 181.7 759.099 225.257 752.206 282.979C750.44 297.72 747.912 312.359 744.631 326.838C713.241 319.542 681.409 314.304 649.336 311.158C630.237 284.357 609.385 258.849 586.918 234.801C589.796 231.695 592.826 228.893 595.932 226.166L595.856 226.469ZM561.39 260.253C575.025 274.798 588.433 290.554 601.538 307.446C588.584 306.916 575.328 306.537 561.92 306.537C548.512 306.537 534.801 306.537 521.545 307.446C534.498 290.63 547.754 274.798 561.39 260.253ZM393.374 169.352C399.121 166.296 405.581 164.831 412.085 165.11C425.733 165.679 439.116 169.057 451.399 175.034C479.16 188.122 504.716 205.449 527.15 226.393L536.013 234.498C513.775 258.37 493.126 283.674 474.2 310.249C441.955 313.373 409.946 318.585 378.375 325.854C375.042 311.158 372.315 296.765 370.8 282.903C362.922 225.711 372.012 182.079 393.298 169.655L393.374 169.352ZM311.412 385.167C324.894 379.582 338.647 374.678 352.62 370.471C362.09 401.854 373.629 432.575 387.163 462.432C373.869 491.964 362.508 522.329 353.15 553.333C338.917 548.988 324.911 543.932 311.184 538.183C257.401 515.458 224.071 486.294 224.071 461.372C224.071 436.45 257.704 407.513 311.412 385.167ZM561.39 392.742C547.636 392.727 534.187 396.79 522.743 404.419C511.299 412.048 502.374 422.899 497.097 435.599C491.82 448.3 490.427 462.281 493.096 475.773C495.764 489.265 502.374 501.663 512.089 511.399C521.803 521.135 534.187 527.771 547.673 530.469C561.159 533.167 575.143 531.805 587.855 526.556C600.568 521.306 611.438 512.405 619.091 500.978C626.745 489.551 630.838 476.11 630.853 462.357C630.923 453.19 629.178 444.1 625.718 435.611C622.259 427.122 617.153 419.402 610.696 412.895C604.239 406.389 596.558 401.225 588.095 397.701C579.633 394.177 570.556 392.363 561.39 392.363V392.742ZM561.39 392.742C547.636 392.727 534.187 396.79 522.743 404.419C511.299 412.048 502.374 422.899 497.097 435.599C491.82 448.3 490.427 462.281 493.096 475.773C495.764 489.265 502.374 501.663 512.089 511.399C521.803 521.135 534.187 527.771 547.673 530.469C561.159 533.167 575.143 531.805 587.855 526.556C600.568 521.306 611.438 512.405 619.091 500.978C626.745 489.551 630.838 476.11 630.853 462.357C630.923 453.19 629.178 444.1 625.718 435.611C622.259 427.122 617.153 419.402 610.696 412.895C604.239 406.389 596.558 401.225 588.095 397.701C579.633 394.177 570.556 392.363 561.39 392.363V392.742ZM561.39 392.742C547.636 392.727 534.187 396.79 522.743 404.419C511.299 412.048 502.374 422.899 497.097 435.599C491.82 448.3 490.427 462.281 493.096 475.773C495.764 489.265 502.374 501.663 512.089 511.399C521.803 521.135 534.187 527.771 547.673 530.469C561.159 533.167 575.143 531.805 587.855 526.556C600.568 521.306 611.438 512.405 619.091 500.978C626.745 489.551 630.838 476.11 630.853 462.357C630.923 453.19 629.178 444.1 625.718 435.611C622.259 427.122 617.153 419.402 610.696 412.895C604.239 406.389 596.558 401.225 588.095 397.701C579.633 394.177 570.556 392.363 561.39 392.363V392.742ZM935.22 462.735C935.22 410.543 873.786 364.259 779.325 336.004C802.05 240.028 792.127 163.671 746.903 137.84C735.815 131.681 723.301 128.547 710.619 128.75C668.425 128.75 615.097 158.217 561.238 209.197C507.379 158.596 454.202 129.28 412.085 129.28C399.205 128.996 386.488 132.188 375.27 138.522C330.274 164.429 320.956 240.331 343.379 335.853C249.372 363.956 188.241 409.861 188.089 461.826C187.938 513.792 249.599 560.303 344.06 588.482C321.335 684.534 331.183 760.815 376.482 786.646C387.529 792.839 400.028 795.977 412.691 795.736C454.96 795.736 508.288 766.269 562.147 715.289C615.93 765.89 669.107 795.206 711.3 795.206C724.174 795.442 736.88 792.253 748.115 785.964C793.111 760.058 802.353 684.155 780.006 589.012C874.013 560.378 935.144 514.473 935.22 462.584V462.735ZM595.932 226.166C657.972 170.64 696.756 164.656 710.543 164.656C716.937 164.45 723.268 165.968 728.875 169.049C750.539 181.397 759.175 224.954 752.282 282.676C750.516 297.417 747.988 312.056 744.707 326.535C713.317 319.239 681.484 314.001 649.412 310.855C630.313 284.054 609.461 258.546 586.993 234.498C589.796 231.695 592.826 228.893 595.932 226.166ZM408.146 505.535C414.054 516.897 420.341 528.26 426.856 539.698C433.371 551.137 440.188 562.727 447.763 574.165C427.235 571.211 407.312 567.499 388.375 563.105C393.677 543.865 400.419 524.927 408.146 505.535ZM387.163 361.305C406.328 356.836 426.402 353.124 447.233 350.245C439.658 361.457 433.143 372.971 426.326 385.015C419.508 397.059 413.524 407.74 407.691 419.255C399.964 399.559 393.122 380.243 387.163 361.305ZM426.629 462.357C436.022 442.51 446.349 422.663 457.611 402.817C468.974 382.97 481.169 363.653 493.744 345.17C515.788 343.504 538.513 342.595 561.92 342.67C585.327 342.746 607.37 343.579 629.262 345.322C641.837 363.653 653.881 383.197 665.244 402.514C676.607 421.83 687.06 442.055 696.453 461.826C687.136 481.673 676.758 501.596 665.547 521.291C654.336 540.986 641.988 560.53 629.414 579.013C607.37 580.755 584.645 581.589 561.238 581.589C537.831 581.589 515.787 580.604 493.895 578.862C481.321 560.53 469.201 541.441 457.838 521.67C446.476 501.899 436.401 482.128 426.932 462.357H426.629ZM675.546 350.473C696.15 353.351 716.073 357.063 734.935 361.457C729.329 380.167 722.663 399.332 714.936 418.648C708.952 407.286 702.741 395.923 696.15 384.485C689.56 373.046 682.591 361.532 675.849 350.473H675.546ZM696.453 539.244C702.968 527.78 709.179 516.342 715.088 504.929C722.663 524.624 730.238 544.016 735.541 562.954C716.451 567.423 696.378 571.059 675.546 573.938C682.869 562.727 689.939 551.162 696.756 539.244H696.453ZM561.39 260.253C575.025 274.798 588.433 290.554 601.538 307.446C588.584 306.916 575.328 306.537 561.92 306.537C548.512 306.537 534.801 306.537 521.545 307.446C534.498 290.63 547.754 274.798 561.39 260.253ZM393.374 169.352C399.121 166.296 405.581 164.831 412.085 165.11C425.733 165.679 439.116 169.057 451.399 175.034C479.16 188.122 504.716 205.449 527.15 226.393L536.013 234.498C513.775 258.37 493.126 283.674 474.2 310.249C441.955 313.373 409.946 318.585 378.375 325.854C375.042 311.158 372.315 296.765 370.8 282.903C362.922 225.711 372.012 182.079 393.298 169.655L393.374 169.352ZM353.302 553.409C339.069 549.064 325.063 544.008 311.336 538.259C257.553 515.534 224.223 486.37 224.223 461.448C224.223 436.526 257.704 407.513 311.412 385.167C324.894 379.582 338.647 374.678 352.62 370.471C362.09 401.854 373.629 432.575 387.163 462.432C373.917 491.993 362.607 522.382 353.302 553.409ZM527.529 698.093C465.489 753.619 426.705 759.527 412.842 759.527C406.447 759.74 400.114 758.222 394.51 755.134C372.846 742.786 364.21 699.23 371.103 641.507C372.863 626.791 375.391 612.176 378.678 597.723C410.077 604.956 441.907 610.169 473.973 613.328C493.049 640.147 513.902 665.657 536.392 689.685L527.529 698.093ZM562.147 663.93C548.512 649.386 535.104 633.629 521.923 616.737C534.952 617.343 548.209 617.646 561.617 617.646C575.025 617.646 588.736 617.646 601.992 616.813C588.887 633.629 575.555 649.386 562.071 663.93H562.147ZM730.162 754.831C724.415 757.979 717.926 759.523 711.376 759.3C697.59 759.3 658.351 753.24 596.538 697.942L587.675 689.836C609.888 665.963 630.511 640.659 649.412 614.086C681.688 611.006 713.725 605.793 745.313 598.481C748.646 613.177 751.297 627.569 752.888 641.432C760.387 698.548 751.676 742.18 730.087 754.528L730.162 754.831ZM811.973 539.395C799.02 544.698 785.309 549.622 770.765 554.015C761.258 522.634 749.693 491.914 736.147 462.054C749.453 432.527 760.814 402.162 770.159 371.153C784.392 375.498 798.398 380.554 812.125 386.303C865.832 409.028 899.238 438.192 899.163 463.114C899.087 488.036 865.681 516.746 811.898 539.092L811.973 539.395ZM561.39 531.669C575.143 531.684 588.592 527.62 600.036 519.991C611.48 512.363 620.405 501.512 625.682 488.811C630.959 476.11 632.352 462.13 629.683 448.637C627.015 435.145 620.405 422.747 610.69 413.011C600.976 403.276 588.592 396.639 575.106 393.941C561.62 391.243 547.636 392.605 534.924 397.855C522.211 403.104 511.341 412.005 503.688 423.433C496.034 434.86 491.941 448.3 491.926 462.054C491.906 471.189 493.688 480.238 497.17 488.683C500.652 497.128 505.766 504.803 512.218 511.27C518.67 517.736 526.334 522.866 534.772 526.367C543.21 529.867 552.255 531.669 561.39 531.669V531.669ZM36.2847 944.511V106.025L0 142.385V980.644H924.539L960.748 944.511H36.2847Z" fill="#09D3AC"/>
</g>
<defs>
<clipPath id="clip0">
<rect width="1024" height="1024" fill="white"/>
</clipPath>
</defs>
</svg>
