<svg viewBox="0 0 512 512" fill="none" xmlns="http://www.w3.org/2000/svg">
<path class="bar-1" d="M0 147.2C0 118.923 22.923 96 51.2 96V96C58.2692 96 64 101.731 64 108.8V403.2C64 410.269 58.2692 416 51.2 416V416C22.923 416 0 393.077 0 364.8V147.2Z" fill="#D4D1C7"/>
<path class="bar-2" d="M96 128C96 110.327 110.327 96 128 96V96C145.673 96 160 110.327 160 128V384C160 401.673 145.673 416 128 416V416C110.327 416 96 401.673 96 384V128Z" fill="#D4D1C7"/>
<path class="bar-3" d="M192 128C192 110.327 206.327 96 224 96V96C241.673 96 256 110.327 256 128V384C256 401.673 241.673 416 224 416V416C206.327 416 192 401.673 192 384V128Z" fill="#D4D1C7"/>
<path class="bar-4" d="M288 128C288 110.327 302.327 96 320 96V96C337.673 96 352 110.327 352 128V384C352 401.673 337.673 416 320 416V416C302.327 416 288 401.673 288 384V128Z" fill="#D4D1C7"/>
<path class="bar-5" d="M384 108.8C384 101.731 389.731 96 396.8 96V96C425.077 96 448 118.923 448 147.2V364.8C448 393.077 425.077 416 396.8 416V416C389.731 416 384 410.269 384 403.2V108.8Z" fill="#D4D1C7"/>
<path class="bar-5" d="M480 198.4C480 194.865 482.865 192 486.4 192V192C500.538 192 512 203.462 512 217.6V294.4C512 308.538 500.538 320 486.4 320V320C482.865 320 480 317.135 480 313.6V198.4Z" fill="#D4D1C7"/>
</svg>
