<svg viewBox="0 0 512 512" fill="none" xmlns="http://www.w3.org/2000/svg">
<path d="M42.6665 198.889C42.6665 191.035 49.034 184.667 56.8887 184.667H220.444C228.299 184.667 234.667 191.034 234.667 198.889V312.667C234.667 320.522 228.299 326.889 220.444 326.889H56.8887C49.034 326.889 42.6665 320.522 42.6665 312.667V198.889Z" fill="#D4D1C7"/>
<mask id="path-2-inside-1" fill="white">
<path fill-rule="evenodd" clip-rule="evenodd" d="M412.444 170.444H56.8889C41.1795 170.444 28.4444 183.179 28.4444 198.889V312.667C28.4444 328.376 41.1795 341.111 56.8889 341.111H412.444C428.154 341.111 440.889 328.376 440.889 312.667V198.889C440.889 183.179 428.154 170.444 412.444 170.444ZM56.8889 142C25.47 142 0 167.47 0 198.889V312.667C0 344.086 25.47 369.556 56.8889 369.556H412.444C443.863 369.556 469.333 344.086 469.333 312.667V198.889C469.333 167.47 443.863 142 412.444 142H56.8889Z"/>
</mask>
<path fill-rule="evenodd" clip-rule="evenodd" d="M412.444 170.444H56.8889C41.1795 170.444 28.4444 183.179 28.4444 198.889V312.667C28.4444 328.376 41.1795 341.111 56.8889 341.111H412.444C428.154 341.111 440.889 328.376 440.889 312.667V198.889C440.889 183.179 428.154 170.444 412.444 170.444ZM56.8889 142C25.47 142 0 167.47 0 198.889V312.667C0 344.086 25.47 369.556 56.8889 369.556H412.444C443.863 369.556 469.333 344.086 469.333 312.667V198.889C469.333 167.47 443.863 142 412.444 142H56.8889Z" fill="#D4D1C7"/>
<path d="M56.8889 298.444H412.444V42.4444H56.8889V298.444ZM156.444 198.889C156.444 253.872 111.872 298.444 56.8889 298.444V42.4444C-29.513 42.4444 -99.5556 112.487 -99.5556 198.889H156.444ZM156.444 312.667V198.889H-99.5556V312.667H156.444ZM56.8889 213.111C111.872 213.111 156.444 257.684 156.444 312.667H-99.5556C-99.5556 399.069 -29.513 469.111 56.8889 469.111V213.111ZM412.444 213.111H56.8889V469.111H412.444V213.111ZM312.889 312.667C312.889 257.684 357.461 213.111 412.444 213.111V469.111C498.846 469.111 568.889 399.069 568.889 312.667H312.889ZM312.889 198.889V312.667H568.889V198.889H312.889ZM412.444 298.444C357.461 298.444 312.889 253.872 312.889 198.889H568.889C568.889 112.487 498.846 42.4444 412.444 42.4444V298.444ZM128 198.889C128 238.162 96.1625 270 56.8889 270V14C-45.2224 14 -128 96.7776 -128 198.889H128ZM128 312.667V198.889H-128V312.667H128ZM56.8889 241.556C96.1625 241.556 128 273.393 128 312.667H-128C-128 414.778 -45.2224 497.556 56.8889 497.556V241.556ZM412.444 241.556H56.8889V497.556H412.444V241.556ZM341.333 312.667C341.333 273.393 373.171 241.556 412.444 241.556V497.556C514.556 497.556 597.333 414.778 597.333 312.667H341.333ZM341.333 198.889V312.667H597.333V198.889H341.333ZM412.444 270C373.171 270 341.333 238.162 341.333 198.889H597.333C597.333 96.7776 514.556 14 412.444 14V270ZM56.8889 270H412.444V14H56.8889V270Z" fill="#D4D1C7" mask="url(#path-2-inside-1)"/>
<path d="M512 241.556C512 225.846 499.265 213.111 483.556 213.111V298.445C499.265 298.445 512 285.71 512 270V241.556Z" fill="#D4D1C7"/>
</svg>
