<svg viewBox="0 0 512 512" fill="none" xmlns="http://www.w3.org/2000/svg">
<path d="M202.668 107H170.668C153.695 107 137.416 113.743 125.414 125.745C113.412 137.747 106.669 154.025 106.669 170.999V195.985C106.668 201.648 104.419 207.079 100.416 211.085L70.25 241.244C68.2685 243.225 66.6967 245.577 65.6243 248.166C64.552 250.754 64 253.529 64 256.331C64 259.133 64.552 261.907 65.6243 264.496C66.6967 267.084 68.2685 269.436 70.25 271.417L100.416 301.583C102.398 303.564 103.971 305.916 105.044 308.504C106.116 311.093 106.669 313.867 106.669 316.67V341.662C106.669 358.636 113.412 374.914 125.414 386.916C137.416 398.919 153.695 405.661 170.668 405.661H202.668C205.497 405.661 208.21 404.538 210.21 402.537C212.21 400.537 213.334 397.824 213.334 394.995V373.662C213.334 370.833 212.21 368.12 210.21 366.12C208.21 364.119 205.497 362.995 202.668 362.995H170.668C165.01 362.995 159.584 360.748 155.584 356.747C151.583 352.746 149.335 347.32 149.335 341.662V316.676C149.335 308.27 147.679 299.947 144.461 292.181C141.243 284.416 136.527 277.36 130.582 271.417L115.503 256.331L130.589 241.244C136.533 235.301 141.247 228.245 144.464 220.479C147.68 212.714 149.336 204.39 149.335 195.985V170.999C149.335 165.341 151.583 159.915 155.584 155.914C159.584 151.913 165.01 149.666 170.668 149.666H202.668C205.497 149.666 208.21 148.542 210.21 146.542C212.21 144.541 213.334 141.828 213.334 138.999V117.666C213.334 114.838 212.21 112.124 210.21 110.124C208.21 108.124 205.497 107 202.668 107ZM441.75 241.244L411.584 211.085C407.581 207.079 405.332 201.648 405.331 195.985V170.999C405.331 154.025 398.588 137.747 386.586 125.745C374.584 113.743 358.305 107 341.332 107H309.332C306.503 107 303.79 108.124 301.79 110.124C299.79 112.124 298.666 114.838 298.666 117.666V138.999C298.666 141.828 299.79 144.541 301.79 146.542C303.79 148.542 306.503 149.666 309.332 149.666H341.332C346.99 149.666 352.416 151.913 356.416 155.914C360.417 159.915 362.665 165.341 362.665 170.999V195.978C362.663 204.387 364.319 212.713 367.537 220.481C370.754 228.249 375.471 235.307 381.418 241.251L396.497 256.331L381.418 271.417C375.473 277.36 370.757 284.416 367.539 292.181C364.321 299.947 362.665 308.27 362.665 316.676V341.662C362.665 347.32 360.417 352.746 356.416 356.747C352.416 360.748 346.99 362.995 341.332 362.995H309.332C306.503 362.995 303.79 364.119 301.79 366.12C299.79 368.12 298.666 370.833 298.666 373.662V394.995C298.666 397.824 299.79 400.537 301.79 402.537C303.79 404.538 306.503 405.661 309.332 405.661H341.332C358.305 405.661 374.584 398.919 386.586 386.916C398.588 374.914 405.331 358.636 405.331 341.662V316.67C405.331 313.867 405.884 311.093 406.956 308.504C408.029 305.916 409.602 303.564 411.584 301.583L441.75 271.417C443.731 269.436 445.303 267.084 446.376 264.496C447.448 261.907 448 259.133 448 256.331C448 253.529 447.448 250.754 446.376 248.166C445.303 245.577 443.731 243.225 441.75 241.244Z" fill="#D4D1C7"/>
</svg>
