<svg viewBox="0 0 512 512" fill="none" xmlns="http://www.w3.org/2000/svg">
<path d="M425.486 107.036C388.952 109.108 316.338 116.651 271.51 144.075C268.417 145.968 266.664 149.332 266.664 152.85V395.294C266.664 402.989 275.084 407.853 282.184 404.282C328.305 381.082 395.006 374.752 427.986 373.02C439.246 372.427 448 363.405 448 352.591V127.491C448.007 115.691 437.766 106.343 425.486 107.036ZM240.49 144.075C195.669 116.651 123.054 109.115 86.5204 107.036C74.2402 106.343 64 115.691 64 127.491V352.598C64 363.418 72.7535 372.44 84.0137 373.026C117.008 374.759 183.742 381.095 229.863 404.309C236.943 407.873 245.336 403.016 245.336 395.34V152.73C245.336 149.206 243.59 145.974 240.49 144.075Z" fill="#D4D1C7"/>
</svg>
