<svg viewBox="0 0 512 512" fill="none" xmlns="http://www.w3.org/2000/svg">
<path d="M256.001 448C282.491 448 303.978 426.513 303.978 400H208.023C208.023 426.513 229.511 448 256.001 448ZM417.543 335.717C403.053 320.147 375.941 296.725 375.941 220C375.941 161.725 335.081 115.075 279.986 103.63V88C279.986 74.7475 269.246 64 256.001 64C242.756 64 232.016 74.7475 232.016 88V103.63C176.921 115.075 136.061 161.725 136.061 220C136.061 296.725 108.948 320.147 94.458 335.717C89.958 340.555 87.963 346.337 88.0005 352C88.083 364.3 97.7355 376 112.076 376H399.926C414.266 376 423.926 364.3 424.001 352C424.038 346.337 422.043 340.548 417.543 335.717Z" fill="#D4D1C7"/>
</svg>
