<svg viewBox="0 0 512 512" fill="none" xmlns="http://www.w3.org/2000/svg">
<path d="M308.959 203.044C353.77 247.9 353.155 319.817 309.229 363.986C309.147 364.076 309.049 364.174 308.959 364.264L258.559 414.664C214.107 459.116 141.785 459.11 97.3394 414.664C52.8869 370.219 52.8869 297.889 97.3394 253.444L125.169 225.614C132.549 218.234 145.258 223.139 145.639 233.569C146.125 246.86 148.509 260.214 152.907 273.109C154.396 277.476 153.332 282.306 150.07 285.568L140.254 295.384C119.235 316.403 118.576 350.629 139.388 371.854C160.406 393.288 194.953 393.415 216.132 372.236L266.532 321.844C287.675 300.7 287.587 266.526 266.532 245.471C263.756 242.701 260.96 240.548 258.776 239.044C257.231 237.983 255.955 236.576 255.051 234.935C254.146 233.293 253.638 231.463 253.566 229.59C253.269 221.665 256.077 213.498 262.339 207.235L278.13 191.444C282.271 187.303 288.766 186.795 293.568 190.146C299.067 193.986 304.217 198.301 308.959 203.044V203.044ZM414.661 97.3371C370.215 52.8906 297.893 52.8846 253.441 97.3371L203.041 147.737C202.951 147.827 202.853 147.925 202.771 148.015C158.846 192.184 158.23 264.1 203.041 308.957C207.783 313.699 212.933 318.015 218.431 321.854C223.233 325.205 229.729 324.696 233.869 320.556L249.66 304.765C255.922 298.502 258.73 290.335 258.433 282.41C258.362 280.537 257.853 278.707 256.949 277.066C256.044 275.424 254.768 274.017 253.223 272.956C251.039 271.452 248.243 269.299 245.467 266.529C224.413 245.474 224.324 211.3 245.467 190.156L295.867 139.764C317.047 118.585 351.592 118.712 372.611 140.146C393.424 161.371 392.765 195.597 371.745 216.616L361.93 226.432C358.667 229.694 357.603 234.524 359.092 238.891C363.49 251.786 365.874 265.14 366.36 278.431C366.742 288.861 379.45 293.766 386.83 286.386L414.66 258.556C459.113 214.112 459.113 141.782 414.661 97.3371V97.3371Z" fill="#D4D1C7"/>
</svg>
