<svg viewBox="0 0 512 512" fill="none" xmlns="http://www.w3.org/2000/svg">
<path d="M424.203 88.0139C424.203 71.7317 410.307 60.2569 396.805 65.1318L186.055 136.006C177.296 139.155 171.303 148.38 171.303 158.88V354.942C164.683 353.157 157.656 352.002 150.227 352.002C115.307 352.002 87 373.489 87 400.001C87 426.513 115.307 448 150.227 448C185.147 448 213.454 426.513 213.454 400.001V224.736L382.059 168.472V306.943C375.44 305.158 368.412 304.003 360.983 304.003C326.064 304.003 297.756 325.49 297.756 352.002C297.756 378.514 326.064 400.001 360.983 400.001C395.903 400.001 424.21 378.514 424.21 352.002L424.203 88.0139Z" fill="#D4D1C7"/>
</svg>
