<svg viewBox="0 0 512 512" fill="none" xmlns="http://www.w3.org/2000/svg">
<path d="M401.203 88.0139C401.203 71.7317 387.307 60.2569 373.805 65.1318L163.055 136.006C154.296 139.155 148.303 148.38 148.303 158.88V354.942C141.683 353.157 134.656 352.002 127.227 352.002C92.3072 352.002 64 373.489 64 400.001C64 426.513 92.3072 448 127.227 448C162.147 448 190.454 426.513 190.454 400.001V224.736L359.059 168.472V306.943C352.44 305.158 345.412 304.003 337.983 304.003C303.064 304.003 274.756 325.49 274.756 352.002C274.756 378.514 303.064 400.001 337.983 400.001C372.903 400.001 401.21 378.514 401.21 352.002L401.203 88.0139Z" fill="#D4D1C7"/>
</svg>
