<svg viewBox="0 0 512 512" fill="none" xmlns="http://www.w3.org/2000/svg">
<path d="M146.098 247.035L247.031 146.116L213.942 113.027L167.682 159.286C167.131 159.839 166.475 160.277 165.754 160.576C165.033 160.876 164.259 161.03 163.479 161.03C162.698 161.03 161.924 160.876 161.203 160.576C160.482 160.277 159.827 159.839 159.275 159.286L150.868 150.879C148.543 148.554 148.543 144.789 150.868 142.471L197.127 96.212L171.897 70.9749C162.605 61.6825 147.545 61.6825 138.253 70.9749L70.9712 138.256C61.6863 147.549 61.6788 162.609 70.9712 171.901L146.098 247.035ZM437.446 159.436C451.516 145.366 451.508 122.559 437.446 108.489L403.509 74.5523C389.439 60.4826 366.624 60.4826 352.547 74.5523L318.033 109.059L402.931 193.958L437.446 159.436ZM301.06 126.039L78.3136 348.756L64.2438 429.335C62.3463 440.202 71.8112 449.667 82.686 447.754L163.272 433.625L385.959 210.93L301.06 126.039ZM441.031 340.108L415.801 314.879L369.542 361.138C367.217 363.463 363.452 363.463 361.134 361.138L352.727 352.731C350.41 350.406 350.41 346.641 352.727 344.323L398.986 298.064L365.882 264.96L264.948 365.878L340.105 441.027C349.397 450.319 364.457 450.319 373.749 441.027L441.031 373.753C450.323 364.461 450.323 349.401 441.031 340.108Z" fill="#D4D1C7"/>
</svg>
