<svg viewBox="0 0 512 512" fill="none" xmlns="http://www.w3.org/2000/svg">
<path d="M408.529 177.726C408.773 181.137 408.773 184.549 408.773 187.96C408.773 292 329.585 411.879 184.853 411.879C140.264 411.879 98.8429 398.965 64 376.549C70.3353 377.28 76.426 377.524 83.0051 377.524C119.796 377.524 153.665 365.098 180.711 343.899C146.112 343.168 117.117 320.508 107.127 289.32C112 290.051 116.873 290.538 121.99 290.538C129.056 290.538 136.123 289.563 142.701 287.858C106.64 280.548 79.5933 248.873 79.5933 210.619V209.645C90.0701 215.493 102.254 219.148 115.167 219.634C93.9686 205.502 80.0808 181.381 80.0808 154.091C80.0808 139.472 83.9786 126.071 90.8014 114.375C129.543 162.132 187.777 193.319 253.076 196.731C251.858 190.883 251.126 184.792 251.126 178.701C251.126 135.33 286.213 100 329.827 100C352.487 100 372.954 109.503 387.33 124.853C405.116 121.442 422.172 114.863 437.279 105.848C431.431 124.122 419.005 139.473 402.68 149.218C418.518 147.513 433.868 143.127 448 137.036C437.281 152.629 423.879 166.517 408.529 177.726Z" fill="#D4D1C7"/>
</svg>
