<svg viewBox="0 0 512 512" fill="none" xmlns="http://www.w3.org/2000/svg">
<path d="M301.469 119.765C276.476 94.7711 235.953 94.7711 210.96 119.765L63.8813 266.843C51.3847 279.339 31.1234 279.34 18.6265 266.843C6.12954 254.346 6.12989 234.085 18.6265 221.588L165.705 74.5098C215.692 24.5228 296.737 24.5228 346.724 74.5098L382.499 110.285V94.5002C382.499 76.8273 396.826 62.5002 414.499 62.5002C432.172 62.5002 446.499 76.8273 446.499 94.5002V174.285L493.802 221.588C506.299 234.085 506.299 254.346 493.802 266.843C481.305 279.34 461.044 279.339 448.547 266.843L301.469 119.765Z" fill="#E3E1DA"/>
<path d="M289.94 145.942C271.195 127.197 240.803 127.197 222.058 145.942L74.9795 293.02C62.1334 305.866 55.8899 322.814 56.249 339.648L56.249 384.001C56.249 419.347 84.9023 448.001 120.249 448.001H175.999L176.024 448.001C184.849 447.987 191.999 440.829 191.999 432.001V336.001C191.999 327.164 199.162 320.001 207.999 320.001H303.999C312.836 320.001 319.999 327.164 319.999 336.001V432.001C319.999 440.829 327.149 447.987 335.974 448.001L335.999 448.001H391.749C427.096 448.001 455.749 419.347 455.749 384.001V339.634C456.104 322.805 449.861 305.862 437.018 293.02L289.94 145.942Z" fill="#E3E1DA"/>
</svg>
