<svg width="512" height="512" viewBox="0 0 512 512" fill="none" xmlns="http://www.w3.org/2000/svg">
<path opacity="0.5" d="M368 208H304L304 96C304 78.3269 318.327 64 336 64C353.673 64 368 78.3269 368 96L368 208Z" fill="#D4D1C7"/>
<path opacity="0.5" d="M208 208H144L144 96C144 78.3269 158.327 64 176 64C193.673 64 208 78.3269 208 96L208 208Z" fill="#D4D1C7"/>
<path d="M384 224C401.673 224 416 238.327 416 256V288C416 358.692 358.692 416 288 416V512H224L224 416C153.308 416 96 358.692 96 288V256C96 238.327 110.327 224 128 224L384 224Z" fill="#D4D1C7"/>
</svg>
