<svg fill="none" xmlns="http://www.w3.org/2000/svg">
<path d="M288 256C288 238.327 273.673 224 256 224C255.997 224 255.994 224 255.99 224H128C110.327 224 96 238.327 96 256C96 273.673 110.327 288 128 288H224V384C224 401.673 238.327 416 256 416C273.673 416 288 401.673 288 384V256Z" fill="#D4D1C7"/>
<path opacity="0.5" d="M224 256C224 273.673 238.327 288 256 288C256.003 288 256.006 288 256.01 288L384 288C401.673 288 416 273.673 416 256C416 238.327 401.673 224 384 224L288 224L288 128C288 110.327 273.673 96 256 96C238.327 96 224 110.327 224 128L224 256Z" fill="#D4D1C7"/>
</svg>
