<svg viewBox="0 0 512 512" fill="none" xmlns="http://www.w3.org/2000/svg">
<path d="M323.882 339.41C286.392 301.919 225.608 301.919 188.118 339.41C175.621 351.906 175.621 372.167 188.118 384.664C200.615 397.161 220.876 397.161 233.373 384.664C245.869 372.168 266.131 372.168 278.627 384.664C291.124 397.161 311.385 397.161 323.882 384.664C336.379 372.167 336.379 351.906 323.882 339.41Z" fill="#E3E1DA"/>
<path d="M391.765 271.53C316.784 196.549 195.216 196.549 120.235 271.53C107.739 284.027 107.738 304.288 120.235 316.785C132.732 329.282 152.994 329.281 165.49 316.785C215.477 266.798 296.523 266.798 346.51 316.785C359.006 329.281 379.268 329.282 391.765 316.785C404.262 304.288 404.261 284.027 391.765 271.53Z" fill="#E3E1DA"/>
<path opacity="0.5" d="M459.647 203.647C347.176 91.1757 164.824 91.1757 52.3533 203.647C39.8567 216.143 39.8563 236.405 52.3533 248.902C64.8502 261.398 85.1115 261.398 97.6081 248.902C185.086 161.424 326.914 161.424 414.392 248.902C426.888 261.398 447.15 261.398 459.647 248.902C472.144 236.405 472.143 216.143 459.647 203.647Z" fill="#E3E1DA"/>
</svg>
