<svg width="576" height="576" viewBox="0 0 576 576" fill="none" xmlns="http://www.w3.org/2000/svg">
<g clip-path="url(#clip0)">
<path d="M241.549 19.0259C266.922 -6.33655 308.062 -6.35063 333.436 19.0357L556.971 242.572C582.342 267.943 582.349 309.102 556.956 334.474L334.458 556.979C309.085 582.33 267.959 582.353 242.581 556.97L19.0306 333.429L19.0298 333.428C-6.34866 308.049 -6.33459 266.917 19.02 241.54L194.943 65.6301L194.95 65.6373L241.549 19.0259Z" fill="#FCFCFA"/>
<path d="M534.343 265.199L310.803 41.6578C297.932 28.7807 277.054 28.7807 264.172 41.6578L217.758 88.0845L276.636 146.97C290.321 142.346 306.012 145.449 316.916 156.359C327.887 167.336 330.963 183.161 326.221 196.896L382.976 253.648C396.711 248.912 412.547 251.976 423.512 262.959C438.835 278.282 438.835 303.112 423.512 318.446C408.178 333.775 383.35 333.775 368.01 318.446C356.488 306.912 353.635 289.973 359.48 275.775L306.546 222.846V362.131C310.28 363.981 313.807 366.444 316.916 369.553C332.239 384.876 332.239 409.706 316.916 425.046C301.593 440.363 276.748 440.363 261.436 425.046C246.114 409.7 246.114 384.871 261.436 369.553C265.225 365.77 269.61 362.906 274.291 360.989V220.399C269.61 218.483 265.236 215.646 261.436 211.835C249.83 200.234 247.038 183.195 252.989 168.941L194.941 110.886L41.6575 264.157C28.7808 277.045 28.7808 297.924 41.6575 310.801L265.208 534.342C278.079 547.219 298.952 547.219 311.84 534.342L534.338 311.837C547.22 298.966 547.22 278.076 534.343 265.199Z" fill="#F05133"/>
</g>
<defs>
<clipPath id="clip0">
<rect width="576" height="576" fill="white"/>
</clipPath>
</defs>
</svg>
