<svg width="512" height="512" viewBox="0 0 512 512" fill="none" xmlns="http://www.w3.org/2000/svg">
<path d="M498.511 231.226L277.641 10.3608C264.923 -2.36213 244.295 -2.36213 231.566 10.3608L185.706 56.2316L243.882 114.413C257.403 109.843 272.906 112.91 283.68 123.689C294.52 134.535 297.559 150.17 292.874 163.741L348.952 219.813C362.523 215.133 378.169 218.161 389.003 229.012C404.143 244.152 404.143 268.684 389.003 283.835C373.853 298.98 349.321 298.98 334.164 283.835C322.779 272.439 319.96 255.703 325.736 241.675L273.435 189.379V326.997C277.123 328.825 280.608 331.258 283.68 334.33C298.82 349.47 298.82 374.002 283.68 389.158C268.54 404.293 243.992 404.293 228.863 389.158C213.723 373.997 213.723 349.464 228.863 334.33C232.607 330.592 236.939 327.762 241.564 325.869V186.962C236.939 185.068 232.618 182.266 228.863 178.501C217.395 167.038 214.637 150.203 220.517 136.12L163.162 78.7597L11.7091 230.196C-1.01386 242.93 -1.01386 263.559 11.7091 276.281L232.59 497.146C245.308 509.869 265.931 509.869 278.665 497.146L498.505 277.306C511.234 264.588 511.234 243.948 498.511 231.226Z" fill="#F05133"/>
</svg>
