<svg width="512" height="512" viewBox="0 0 512 512" fill="none" xmlns="http://www.w3.org/2000/svg">
<path d="M510.868 255.569C510.868 221.735 468.498 189.672 403.538 169.788C418.529 103.578 411.866 50.9021 382.509 34.0374C375.742 30.0815 367.831 28.2076 359.19 28.2076V51.4226C363.979 51.4226 367.831 52.3595 371.058 54.1293C385.216 62.2493 391.358 93.168 386.569 132.935C385.424 142.721 383.55 153.027 381.26 163.542C360.856 158.545 338.578 154.693 315.154 152.194C301.1 132.935 286.526 115.446 271.848 100.143C305.785 68.5996 337.641 51.3185 359.294 51.3185V28.1035C330.666 28.1035 293.189 48.5077 255.295 83.9028C217.402 48.7159 179.924 28.5199 151.296 28.5199V51.7349C172.845 51.7349 204.805 68.9119 238.743 100.247C224.168 115.55 209.594 132.935 195.748 152.194C172.221 154.693 149.943 158.545 129.539 163.646C127.144 153.235 125.374 143.137 124.125 133.456C119.232 93.6885 125.27 62.7699 139.324 54.5457C142.447 52.6719 146.507 51.839 151.296 51.839V28.624C142.551 28.624 134.64 30.4979 127.769 34.4538C98.5158 51.3185 91.9574 103.891 107.052 169.892C42.3002 189.88 0.138428 221.839 0.138428 255.569C0.138428 289.402 42.5084 321.466 107.469 341.35C92.4779 407.559 99.1405 460.236 128.498 477.1C135.264 481.056 143.176 482.93 151.921 482.93C180.549 482.93 218.026 462.526 255.92 427.131C293.813 462.318 331.29 482.514 359.919 482.514C368.663 482.514 376.575 480.64 383.446 476.684C412.699 459.819 419.257 407.247 404.163 341.246C468.706 321.362 510.868 289.298 510.868 255.569ZM375.326 186.132C371.474 199.561 366.685 213.407 361.272 227.253C357.004 218.925 352.527 210.596 347.635 202.268C342.846 193.94 337.745 185.82 332.644 177.908C347.426 180.094 361.688 182.801 375.326 186.132ZM327.647 297.002C319.527 311.056 311.198 324.381 302.558 336.769C287.047 338.123 271.327 338.851 255.503 338.851C239.784 338.851 224.064 338.123 208.657 336.873C200.016 324.485 191.584 311.264 183.464 297.314C175.552 283.677 168.369 269.831 161.811 255.881C168.265 241.931 175.552 227.981 183.36 214.344C191.48 200.29 199.808 186.965 208.449 174.577C223.96 173.223 239.68 172.495 255.503 172.495C271.223 172.495 286.942 173.223 302.35 174.472C310.99 186.861 319.423 200.082 327.543 214.032C335.455 227.669 342.638 241.515 349.196 255.465C342.638 269.415 335.454 283.364 327.647 297.002ZM361.272 283.468C366.894 297.418 371.682 311.368 375.638 324.901C362.001 328.233 347.635 331.044 332.748 333.23C337.849 325.214 342.95 316.99 347.739 308.557C352.527 300.229 357.004 291.797 361.272 283.468ZM255.712 394.546C246.03 384.553 236.348 373.414 226.771 361.233C236.14 361.65 245.718 361.962 255.399 361.962C265.185 361.962 274.867 361.754 284.34 361.233C274.971 373.414 265.289 384.553 255.712 394.546ZM178.259 333.23C163.476 331.044 149.214 328.337 135.577 325.006C139.428 311.576 144.217 297.731 149.63 283.885C153.899 292.213 158.375 300.541 163.268 308.87C168.161 317.198 173.158 325.318 178.259 333.23ZM255.191 116.591C264.873 126.585 274.554 137.724 284.132 149.904C274.762 149.488 265.185 149.175 255.503 149.175C245.718 149.175 236.036 149.384 226.563 149.904C235.932 137.724 245.614 126.585 255.191 116.591ZM178.155 177.908C173.054 185.924 167.953 194.148 163.164 202.58C158.375 210.909 153.899 219.237 149.63 227.565C144.009 213.615 139.22 199.665 135.264 186.132C148.902 182.905 163.268 180.094 178.155 177.908ZM83.9414 308.245C47.0889 292.525 23.2493 271.913 23.2493 255.569C23.2493 239.225 47.0889 218.508 83.9414 202.893C92.8943 199.041 102.68 195.605 112.778 192.378C118.712 212.782 126.52 234.019 136.201 255.777C126.624 277.43 118.92 298.563 113.09 318.863C102.784 315.636 92.9984 312.097 83.9414 308.245ZM139.949 457.008C125.791 448.888 119.649 417.97 124.438 378.202C125.583 368.417 127.457 358.11 129.747 347.596C150.151 352.593 172.429 356.445 195.852 358.943C209.906 378.202 224.481 395.692 239.159 410.995C205.222 442.538 173.366 459.819 151.713 459.819C147.028 459.715 143.072 458.778 139.949 457.008ZM386.881 377.682C391.774 417.449 385.736 448.368 371.682 456.592C368.559 458.466 364.499 459.299 359.71 459.299C338.161 459.299 306.202 442.122 272.264 410.787C286.838 395.483 301.413 378.098 315.259 358.839C338.786 356.341 361.064 352.489 381.468 347.388C383.862 357.902 385.736 368 386.881 377.682ZM426.961 308.245C418.008 312.097 408.223 315.532 398.125 318.759C392.191 298.355 384.383 277.118 374.701 255.361C384.279 233.707 391.982 212.574 397.812 192.274C408.118 195.501 417.904 199.041 427.065 202.893C463.918 218.612 487.757 239.225 487.757 255.569C487.653 271.913 463.814 292.63 426.961 308.245Z" fill="#61DAFB"/>
<path d="M255.399 303.144C281.674 303.144 302.974 281.844 302.974 255.569C302.974 229.294 281.674 207.994 255.399 207.994C229.124 207.994 207.824 229.294 207.824 255.569C207.824 281.844 229.124 303.144 255.399 303.144Z" fill="#61DAFB"/>
</svg>
