<svg width="576" height="576" viewBox="0 0 576 576" fill="none" xmlns="http://www.w3.org/2000/svg">
<path d="M508.8 327.164C542.261 349.425 553.133 394.021 532.663 429.33C512.007 465.176 466.823 477.833 430.681 458.934L364.609 497.082C362.966 537.834 329.382 570.624 288 570.624C247.262 570.624 213.994 538.932 211.48 498.833L143.747 459.726C107.784 477.456 63.662 464.686 43.2971 429.26C23.0321 394.007 33.8449 349.448 67.2 327.173V248.926C33.6343 226.72 22.947 181.918 43.1691 146.74C63.5356 111.311 107.845 98.4909 143.766 116.34L211.475 77.246C213.95 37.1101 247.236 5.37598 288 5.37598C328.792 5.37598 362.094 37.1527 364.529 77.3268L432.161 116.375C468.158 98.4316 512.29 111.376 532.759 146.616L532.795 146.678L532.831 146.74C553.122 182.038 542.255 226.665 508.8 248.912V327.164Z" fill="#FCFCFA"/>
<path fill-rule="evenodd" clip-rule="evenodd" d="M443.904 429.696C465.28 441.984 492.672 434.688 504.96 413.312C517.376 391.936 510.08 364.672 488.576 352.256C484.8 350.085 480.835 348.526 476.8 347.547V228.484C480.88 227.507 484.888 225.938 488.704 223.744C510.08 211.328 517.376 184.064 505.088 162.688C492.672 141.312 465.408 134.016 444.032 146.304C440.186 148.538 436.796 151.252 433.894 154.326L330.826 94.8183C332.027 90.7734 332.672 86.4872 332.672 82.048C332.672 57.344 312.704 37.376 288 37.376C263.296 37.376 243.328 57.344 243.328 82.048C243.328 86.4628 243.966 90.7264 245.154 94.7518L142.058 154.276C139.167 151.222 135.793 148.526 131.968 146.304C110.592 134.016 83.1999 141.312 70.9119 162.688C58.6239 184.064 65.9199 211.456 87.2959 223.744C91.1122 225.938 95.1203 227.507 99.2 228.484V347.544C95.1669 348.523 91.2034 350.083 87.4239 352.256C66.0479 364.672 58.7519 391.936 71.0399 413.312C83.3279 434.688 110.592 441.984 132.096 429.696C135.88 427.498 139.223 424.835 142.094 421.821L245.135 481.313C243.959 485.32 243.328 489.561 243.328 493.952C243.328 518.656 263.296 538.624 288 538.624C312.704 538.624 332.672 518.528 332.672 493.952C332.672 489.031 331.88 484.298 330.415 479.874L432.855 420.728C435.951 424.205 439.648 427.25 443.904 429.696ZM422.854 401.664C423.096 402.65 423.371 403.627 423.679 404.594L321.036 463.857C312.871 454.896 301.102 449.28 288 449.28C275.348 449.28 263.939 454.517 255.817 462.946L152.671 403.392C152.837 402.819 152.991 402.243 153.134 401.664H422.854ZM435.383 358.609C432.364 361.487 429.704 364.841 427.52 368.64C425.349 372.416 423.789 376.381 422.811 380.416H153.192C152.213 376.383 150.653 372.419 148.48 368.64C146.288 364.866 143.632 361.53 140.629 358.664L275.556 124.97C279.505 126.109 283.68 126.72 288 126.72C292.334 126.72 296.521 126.106 300.481 124.959L435.383 358.609ZM455.552 347.59C454.973 347.732 454.396 347.886 453.823 348.051L318.888 114.344C319.295 113.955 319.695 113.558 320.087 113.153L423.401 172.803C420.207 184.019 421.38 196.456 427.648 207.36C433.937 218.3 444.182 225.552 455.552 228.378V347.59ZM255.864 113.103C256.281 113.534 256.706 113.957 257.14 114.371L122.208 348.074C121.624 347.905 121.038 347.747 120.448 347.602V228.378C131.818 225.552 142.063 218.3 148.352 207.36C154.633 196.434 155.797 183.969 152.58 172.735L255.864 113.103Z" fill="#E10098"/>
</svg>
