<svg width="576" height="576" viewBox="0 0 576 576" fill="none" xmlns="http://www.w3.org/2000/svg">
<path d="M576 0H0V576H576V0Z" fill="#FCFCFA"/>
<path d="M544 32H32V544H544V32Z" fill="#F7DF1E"/>
<path d="M166.623 459.864L205.806 436.152C213.365 449.554 220.241 460.893 236.735 460.893C252.545 460.893 262.513 454.709 262.513 430.653V267.057H310.628V431.333C310.628 481.168 281.416 503.852 238.797 503.852C200.307 503.852 177.965 483.917 166.623 459.86" fill="black"/>
<path d="M336.762 454.709L375.939 432.025C386.252 448.867 399.656 461.24 423.369 461.24C443.306 461.24 456.018 451.272 456.018 437.524C456.018 421.027 442.959 415.184 420.963 405.564L408.937 400.405C374.222 385.629 351.194 367.07 351.194 327.89C351.194 291.803 378.689 264.307 421.651 264.307C452.239 264.307 474.235 274.962 490.043 302.801L452.581 326.858C444.332 312.081 435.398 306.239 421.651 306.239C407.56 306.239 398.623 315.174 398.623 326.858C398.623 341.294 407.56 347.137 428.179 356.074L440.207 361.228C481.106 378.757 504.134 396.627 504.134 436.836C504.134 480.143 470.109 503.856 424.4 503.856C379.721 503.856 350.851 482.549 336.762 454.709" fill="black"/>
</svg>
