<svg width="512" height="512" viewBox="0 0 512 512" fill="none" xmlns="http://www.w3.org/2000/svg">
<path d="M256 16C123.44 16 16 123.44 16 256C16 388.56 123.44 496 256 496C388.56 496 496 388.56 496 256C496 123.44 388.56 16 256 16ZM122.64 389.32C86.44 353.12 68.4 305.84 67.84 258.4L253.6 444.16C206.16 443.6 158.88 425.56 122.64 389.32V389.32ZM297.72 439.76L72.24 214.28C91.24 130.24 166.24 67.44 256 67.44C318.76 67.44 374.2 98.24 408.48 145.4L382.24 167.6C354.32 127.8 308.2 101.72 256 101.72C188.92 101.72 131.88 144.8 110.68 204.72L307.32 401.36C356.68 383.88 394.52 342.08 406.36 290.32H324.56V256H444.56C444.56 345.8 381.76 420.76 297.72 439.76V439.76Z" fill="#663399"/>
</svg>
