<svg width="1024" height="1024" viewBox="0 0 1024 1024" fill="none" xmlns="http://www.w3.org/2000/svg">
<rect width="1024" height="1024" rx="256" fill="url(#paint0_linear)"/>
<path d="M263.647 648.499V375H193.119C188.11 377.605 132.809 414.472 128 418.079V480.392C132.408 477.387 185.906 441.321 189.312 439.518H192.518V648.499H263.647Z" fill="white"/>
<path d="M438.366 648.499V375H367.837C362.828 377.605 307.527 414.472 302.718 418.079V480.392C307.127 477.387 360.624 441.321 364.03 439.518H367.236V648.499H438.366Z" fill="white"/>
<path d="M474.632 583.179C474.632 604.218 492.064 621.449 513.102 621.449C534.14 621.449 551.372 604.218 551.372 583.179C551.372 562.141 534.14 544.709 513.102 544.709C492.064 544.709 474.632 562.141 474.632 583.179ZM474.632 448.734C474.632 469.773 492.064 487.004 513.102 487.004C534.14 487.004 551.372 469.773 551.372 448.734C551.372 427.696 534.14 410.264 513.102 410.264C492.064 410.264 474.632 427.696 474.632 448.734Z" fill="white"/>
<path d="M721.281 648.499V375H650.753C645.744 377.605 590.443 414.472 585.634 418.079V480.392C590.042 477.387 643.54 441.321 646.946 439.518H650.152V648.499H721.281Z" fill="white"/>
<path d="M896 648.499V375H825.471C820.462 377.605 765.161 414.472 760.353 418.079V480.392C764.761 477.387 818.258 441.321 821.664 439.518H824.87V648.499H896Z" fill="white"/>
<defs>
<linearGradient id="paint0_linear" x1="51.7355" y1="-442.54" x2="1411.37" y2="-85.6738" gradientUnits="userSpaceOnUse">
<stop stop-color="#FFBF00"/>
<stop offset="1" stop-color="#C70000"/>
</linearGradient>
</defs>
</svg>
