<svg width="576" height="576" viewBox="0 0 576 576" fill="none" xmlns="http://www.w3.org/2000/svg">
<circle cx="288" cy="288" r="288" fill="#FCFCFA"/>
<path fill-rule="evenodd" clip-rule="evenodd" d="M439.431 258.95C356.911 209.943 220.797 205.437 142.023 229.346C129.373 233.182 115.996 226.041 112.162 213.392C108.329 200.736 115.464 187.368 128.123 183.522C218.551 156.073 368.873 161.374 463.871 217.766C475.252 224.522 478.985 239.217 472.238 250.577C465.488 261.955 450.781 265.706 439.431 258.95ZM436.728 331.534C430.942 340.928 418.659 343.872 409.277 338.107C340.48 295.817 235.575 283.567 154.183 308.274C143.628 311.462 132.479 305.51 129.275 294.976C126.093 284.42 132.048 273.293 142.582 270.083C235.563 241.87 351.146 255.535 430.162 304.095C439.544 309.873 442.497 322.162 436.728 331.534ZM405.404 401.242C400.806 408.784 390.981 411.15 383.467 406.552C323.349 369.811 247.683 361.511 158.573 381.867C149.986 383.836 141.43 378.453 139.47 369.869C137.502 361.282 142.863 352.725 151.469 350.766C248.986 328.471 332.636 338.067 400.112 379.3C407.635 383.894 410.005 393.722 405.404 401.242ZM288.002 32C146.617 32 32 146.612 32 287.997C32 429.391 146.617 544 288.002 544C429.389 544 544 429.391 544 287.997C544 146.612 429.389 32 288.002 32Z" fill="#1DB954"/>
</svg>
