<svg width="512" height="512" viewBox="0 0 512 512" fill="none" xmlns="http://www.w3.org/2000/svg">
<path d="M256 0L482.261 128V384L256 512L29.7385 384V128L256 0Z" fill="white"/>
<path d="M441.856 375.168L263.467 476.075V397.483L374.613 336.341L441.856 375.168ZM454.059 364.117V153.088L388.779 190.763V326.4L454.059 364.117ZM69.4186 375.168L247.808 476.075V397.483L136.661 336.341L69.4186 375.168V375.168ZM57.2159 364.117V153.088L122.496 190.763V326.4L57.2159 364.117V364.117ZM64.8533 139.435L247.808 35.9253V111.915L130.603 176.384L129.707 176.896L64.8533 139.435V139.435ZM446.421 139.435L263.467 35.9253V111.915L380.672 176.384L381.568 176.896L446.421 139.435V139.435Z" fill="#8ED6FB"/>
<path d="M247.808 379.605L138.155 319.317V199.851L247.808 263.168V379.605ZM263.467 379.605L373.12 319.317V199.851L263.467 263.168V379.605ZM145.579 186.027L255.659 125.483L365.739 186.027L255.659 249.6L145.579 186.027V186.027Z" fill="#1C78C0"/>
</svg>
