<svg width="1024" height="1024" viewBox="0 0 1024 1024" fill="none" xmlns="http://www.w3.org/2000/svg">
<path d="M222.92 920.097L13.0837 557.056C-3.34299 528.641 -3.34299 493.632 13.0837 465.217L222.92 102.175C239.368 73.8068 269.71 56.3455 302.534 56.3584H722.207C755.03 56.3455 785.372 73.8068 801.821 102.175L1011.66 465.217C1028.08 493.632 1028.08 528.641 1011.66 557.056L801.821 920.097C785.372 948.466 755.03 965.927 722.207 965.914H302.534C269.71 965.927 239.368 948.466 222.92 920.097Z" fill="url(#paint0_linear)"/>
<path opacity="0.07" d="M963.364 633.402L685.949 380.718L351.18 403.692V479.179L390.564 512L428.308 539.897L354.462 620.308L673.763 961.607C673.763 961.607 730.257 966.53 761.436 953.436C769.771 945.825 786.565 940.373 804.103 914.051C821.64 887.729 963.364 633.402 963.364 633.402Z" fill="black"/>
<path fill-rule="evenodd" clip-rule="evenodd" d="M350.859 388.875L520.892 321.641L688.79 384.113V479.858L520.892 417.386L350.859 484.62V388.875Z" fill="white"/>
<path fill-rule="evenodd" clip-rule="evenodd" d="M352.994 527.731L520.892 465.259L688.79 527.731V623.476L520.892 561.004L352.994 623.476V527.731Z" fill="white"/>
<path fill-rule="evenodd" clip-rule="evenodd" d="M520.893 602.17L568.863 599.538L652.812 635.442L520.893 685.947V602.17Z" fill="white"/>
<defs>
<linearGradient id="paint0_linear" x1="2.30755e+06" y1="1.03347e+06" x2="2.30755e+06" y2="1.07367e+06" gradientUnits="userSpaceOnUse">
<stop stop-color="#4387FD"/>
<stop offset="1" stop-color="#4683EA"/>
</linearGradient>
</defs>
</svg>
