<svg width="576" height="576" viewBox="0 0 576 576" fill="none" xmlns="http://www.w3.org/2000/svg">
<g clip-path="url(#clip0)">
<path d="M319.667 458.667V392.512C336.031 400.862 354.285 405.333 373 405.333C404.119 405.333 433.963 392.971 455.967 370.967C477.971 348.963 490.333 319.119 490.333 288C490.333 256.881 477.971 227.037 455.967 205.033C455.166 204.231 454.354 203.442 453.532 202.667C454.354 201.891 455.166 201.102 455.967 200.301C477.971 178.296 490.333 148.452 490.333 117.333C490.333 86.2146 477.971 56.3704 455.967 34.3661C433.963 12.3619 404.119 0 373 0H202.333C171.215 0 141.37 12.3619 119.366 34.3661C97.3619 56.3704 85 86.2146 85 117.333C85 148.452 97.3619 178.296 119.366 200.301C120.168 201.102 120.98 201.891 121.802 202.667C120.98 203.442 120.168 204.231 119.366 205.033C97.3619 227.037 85 256.881 85 288C85 319.119 97.3619 348.963 119.366 370.967C120.168 371.769 120.98 372.557 121.802 373.333C120.98 374.109 120.168 374.898 119.366 375.7C97.3619 397.704 85 427.548 85 458.667C85 489.786 97.3619 519.63 119.366 541.634C141.37 563.638 171.215 576 202.333 576C233.452 576 263.296 563.638 285.301 541.634C307.305 519.63 319.667 489.786 319.667 458.667Z" fill="#FCFCFA"/>
<path d="M287.667 288C287.667 265.368 296.657 243.663 312.66 227.66C328.663 211.657 350.368 202.667 373 202.667C395.632 202.667 417.337 211.657 433.34 227.66C449.343 243.663 458.333 265.368 458.333 288C458.333 310.632 449.343 332.336 433.34 348.34C417.337 364.343 395.632 373.333 373 373.333C350.368 373.333 328.663 364.343 312.66 348.34C296.657 332.336 287.667 310.632 287.667 288V288Z" fill="#1ABCFE"/>
<path d="M117 458.667C117 436.035 125.99 414.33 141.994 398.327C157.997 382.324 179.702 373.333 202.333 373.333H287.667V458.667C287.667 481.299 278.676 503.003 262.673 519.007C246.67 535.01 224.965 544 202.333 544C179.702 544 157.997 535.01 141.994 519.007C125.99 503.003 117 481.299 117 458.667H117Z" fill="#0ACF83"/>
<path d="M287.667 32V202.667H373C395.632 202.667 417.337 193.676 433.34 177.673C449.343 161.67 458.333 139.965 458.333 117.333C458.333 94.7015 449.343 72.9967 433.34 56.9936C417.337 40.9904 395.632 32 373 32L287.667 32Z" fill="#FF7262"/>
<path d="M117 117.333C117 139.965 125.99 161.67 141.994 177.673C157.997 193.676 179.702 202.667 202.333 202.667H287.667V32H202.333C179.702 32 157.997 40.9904 141.994 56.9936C125.99 72.9967 117 94.7015 117 117.333H117Z" fill="#F24E1E"/>
<path d="M117 288C117 310.632 125.99 332.336 141.994 348.34C157.997 364.343 179.702 373.333 202.333 373.333H287.667V202.667H202.333C179.702 202.667 157.997 211.657 141.994 227.66C125.99 243.663 117 265.368 117 288H117Z" fill="#A259FF"/>
</g>
<defs>
<clipPath id="clip0">
<rect width="576" height="576" fill="white"/>
</clipPath>
</defs>
</svg>
