<svg width="512" height="512" viewBox="0 0 512 512" fill="none" xmlns="http://www.w3.org/2000/svg">
<path d="M256 256C256 234.783 264.429 214.434 279.431 199.431C294.434 184.429 314.783 176 336 176C357.217 176 377.566 184.429 392.568 199.431C407.571 214.434 416 234.783 416 256C416 277.217 407.571 297.566 392.568 312.569C377.566 327.571 357.217 336 336 336C314.783 336 294.434 327.571 279.431 312.569C264.429 297.566 256 277.217 256 256V256Z" fill="#1ABCFE"/>
<path d="M96 416C96 394.783 104.429 374.434 119.431 359.431C134.434 344.429 154.783 336 176 336H256V416C256 437.217 247.571 457.566 232.569 472.568C217.566 487.571 197.217 496 176 496C154.783 496 134.434 487.571 119.431 472.568C104.429 457.566 96 437.217 96 416H96Z" fill="#0ACF83"/>
<path d="M256 16V176H336C357.217 176 377.566 167.571 392.568 152.569C407.571 137.566 416 117.217 416 96C416 74.7827 407.571 54.4344 392.568 39.4315C377.566 24.4285 357.217 16 336 16L256 16Z" fill="#FF7262"/>
<path d="M96 96C96 117.217 104.429 137.566 119.431 152.569C134.434 167.571 154.783 176 176 176H256V16H176C154.783 16 134.434 24.4285 119.431 39.4315C104.429 54.4344 96 74.7827 96 96H96Z" fill="#F24E1E"/>
<path d="M96 256C96 277.217 104.429 297.566 119.431 312.569C134.434 327.571 154.783 336 176 336H256V176H176C154.783 176 134.434 184.429 119.431 199.431C104.429 214.434 96 234.783 96 256H96Z" fill="#A259FF"/>
</svg>
