<svg width="576" height="576" viewBox="0 0 576 576" fill="none" xmlns="http://www.w3.org/2000/svg">
<path d="M295.62 541C380.005 541.072 413.003 509.909 420.537 501.132C424.004 497.778 427.115 494.111 429.664 490.172C447.326 481.645 465.999 470.411 481.144 455.973C497.221 440.645 510.169 420.852 512.427 396.269C512.466 395.852 512.488 395.438 512.494 395.026C512.684 392.821 512.727 390.586 512.591 388.348C537.219 346.353 547.583 299.13 539.46 248.289C538.465 242.061 533.995 237.239 528.331 235.507C526.322 225.816 523.529 215.961 519.819 206.008C506.626 168.132 485.087 134.903 469.576 110.974L469.26 110.486C463.104 100.988 458.147 93.3255 454.683 87.098C452.967 84.0134 451.841 81.6728 451.174 79.9493C450.816 79.0238 450.681 78.503 450.636 78.3187C450.45 71.8129 446.333 66.047 440.201 63.7753C433.925 61.4503 426.865 63.2771 422.504 68.3545C421.013 70.0914 419.628 71.958 418.35 73.9337C407.39 62.8664 399.815 54.2465 394.732 47.4579C387.042 37.1865 386.741 33.2741 386.741 33C386.741 26.3704 382.653 20.4276 376.461 18.0574C370.27 15.6873 363.258 17.381 358.831 22.3158L370.741 33C358.831 22.3158 358.829 22.3178 358.828 22.3197L358.824 22.3239L358.816 22.3331L358.796 22.355L358.745 22.4125C358.705 22.457 358.655 22.5138 358.595 22.5825C358.474 22.72 358.312 22.9059 358.112 23.1387C357.711 23.6044 357.158 24.2587 356.474 25.0916C355.108 26.7562 353.218 29.1408 350.996 32.1638C346.578 38.1716 340.783 46.7868 335.167 57.3564C334.284 58.9584 333.401 60.6246 332.526 62.354C318.297 59.6853 303.631 58.2915 288.655 58.2915C234.483 58.2915 184.513 76.5186 144.531 107.174C144.047 106.261 143.557 105.296 143.064 104.275C142.902 103.939 142.728 103.609 142.542 103.285L142.524 103.253C142.327 102.908 141.668 101.754 140.462 100.416C139.469 96.0926 138.866 90.9097 139.074 87.0715C139.377 81.4827 136.737 76.1419 132.114 72.9878C130.96 72.2008 129.725 71.5785 128.442 71.1237C124.516 69.6595 120.117 69.7772 116.214 71.5558L116.291 71.7248C116.287 71.7267 116.283 71.7285 116.279 71.7304C116.2 71.5621 116.198 71.5631 116.196 71.564L116.178 71.5723L116.141 71.5893L116.066 71.6244C116.014 71.6483 115.962 71.6733 115.907 71.6993C115.799 71.7514 115.684 71.8078 115.564 71.8687C115.322 71.9906 115.058 72.1307 114.771 72.2906C114.198 72.6106 113.541 73.0096 112.817 73.5015C111.365 74.4879 109.662 75.8353 107.845 77.6446C104.974 80.5023 101.937 84.393 99.1591 89.614C97.6502 90.9892 96.7771 92.3103 96.4827 92.7695C96.4751 92.7791 96.4672 92.7892 96.4588 92.7998C96.4199 92.8489 96.3753 92.9049 96.322 92.9716L96.1441 93.1935C96.0968 93.2523 96.0413 93.3207 95.9782 93.3984C95.1795 94.3823 93.1758 96.8505 91.6046 100.146C90.7435 101.074 90.2178 101.859 89.9848 102.213C89.5111 102.931 89.1442 103.62 88.8725 104.192C86.2055 109.605 83.907 115.192 81.9928 120.915C81.9463 121.054 81.9016 121.194 81.8589 121.334C79.2119 130.037 76.0236 142.061 74.992 157.427C74.8726 158.666 74.7762 159.842 74.7035 160.935C70.0497 166.603 66.3271 171.858 64.1805 175.794C54.7427 190.554 45.0699 212.279 35.9477 244.809C34.5336 249.852 35.7011 255.045 38.7016 258.926C36.0669 272.856 34.1819 289.194 33.5098 308.339C33.2901 314.6 36.7116 320.203 41.9464 323.008C44.5114 343.458 50.1995 365.991 61.0805 390.066L61.1039 390.118C71.991 413.981 97.2429 462.753 158.483 500.78C158.68 500.922 158.924 501.095 159.215 501.298C159.956 501.816 161.002 502.529 162.341 503.4C165.017 505.142 168.872 507.522 173.82 510.245C183.657 515.659 197.872 522.462 215.773 528.293C218.282 529.202 220.857 530.108 223.505 530.996C224.803 531.431 226.119 531.691 227.427 531.787C249.637 537.882 272.57 540.983 295.62 541ZM295.62 541L295.634 525M295.62 541L295.634 525M295.634 525C278.315 524.987 261.066 523.118 244.18 519.437L408.838 490.18C406.176 493.494 378.628 525.071 295.634 525ZM96.398 93.3972L96.4919 93.4726L96.7346 93.6674L96.398 93.3972ZM96.398 93.3972L96.492 93.4727L96.7348 93.6675L97.0655 93.9329L96.398 93.3972ZM96.9624 94.1679C96.3737 95.4752 95.9751 96.273 95.5892 97.0198L96.9624 94.1679ZM87.3877 110.916C87.3872 110.926 87.3868 110.936 87.3863 110.947C87.3899 110.768 87.3955 110.731 87.3877 110.916Z" fill="#FCFCFA" stroke="#FCFCFA" stroke-width="32" stroke-linejoin="round"/>
<path d="M434.643 78.7788C422.669 92.7208 417.093 124.098 429.234 155.907C441.375 187.715 459.984 180.807 471.584 213.243C486.895 256.043 479.768 313.538 479.768 313.538C479.768 313.538 498.175 366.842 511.002 310.221C539.394 203.87 434.643 104.968 434.643 78.7788Z" fill="url(#paint0_radial)"/>
<path d="M288.536 520.319C411.154 520.319 510.486 420.449 510.486 297.305C510.486 174.16 411.154 74.2915 288.655 74.2915C166.156 74.2915 66.8249 174.161 66.8249 297.305C66.5874 420.568 166.036 520.319 288.536 520.319Z" fill="url(#paint1_radial)"/>
<path d="M454.837 434.818C450.039 438.203 445.006 441.241 439.776 443.909C446.704 433.757 453.096 423.25 458.926 412.429C463.656 407.194 467.989 402.105 471.52 396.602C473.238 393.899 475.176 390.563 477.228 386.693C489.688 364.243 503.428 327.911 503.817 290.593V290.503C503.826 289.584 503.832 288.665 503.824 287.745C503.889 278.378 502.931 269.031 500.968 259.871C501.068 260.587 501.156 261.302 501.246 262.017C501.136 261.467 501.043 260.911 500.924 260.36C501.107 261.377 501.254 262.36 501.412 263.351C503.959 284.96 502.145 306.037 493.071 321.576C492.928 321.803 492.781 322.016 492.637 322.238C497.342 298.621 498.916 272.544 493.681 246.438C493.681 246.438 491.587 233.746 475.993 195.217C467.017 173.041 451.076 154.859 436.993 141.614C424.648 126.341 413.436 116.091 407.255 109.584C394.345 95.9895 388.934 85.7995 386.712 79.1505C384.785 78.1845 360.144 54.247 358.187 53.335C347.431 70.011 313.606 122.172 329.696 170.908C336.988 192.994 355.43 215.916 374.73 228.776C375.577 229.744 386.214 241.297 391.273 267.354C396.496 294.275 393.75 315.282 383 346.346C370.357 373.598 337.966 400.54 307.638 403.296C242.8 409.186 219.063 370.742 219.063 370.742C242.231 380.004 267.847 378.067 283.425 368.464C299.125 358.751 308.622 351.55 316.33 354.39C323.93 357.216 329.98 349.012 324.551 340.506C320.359 334.049 314.36 328.967 307.301 325.893C300.242 322.82 292.435 321.89 284.851 323.22C269.135 325.774 254.738 338.224 234.145 326.167C232.812 325.394 231.522 324.549 230.281 323.636C228.923 322.743 234.694 324.994 233.347 323.98C229.34 321.803 222.247 317.059 220.407 315.371C220.101 315.09 223.517 316.461 223.21 316.179C203.955 300.323 206.36 289.612 206.965 282.894C207.45 277.52 210.947 270.633 216.841 267.839C219.687 269.393 221.461 270.579 221.461 270.579C221.461 270.579 220.247 268.098 219.59 266.791C219.82 266.691 220.04 266.717 220.269 266.62C222.601 267.745 227.758 270.67 230.473 272.453C234.009 274.947 235.136 277.171 235.136 277.171C235.136 277.171 236.067 276.659 235.378 274.484C235.128 273.592 234.055 270.757 230.552 267.897L230.771 267.921C232.868 269.116 234.853 270.495 236.705 272.042C237.692 268.451 239.468 264.702 239.078 257.996C238.839 253.28 238.949 252.059 238.118 250.238C237.374 248.674 238.535 248.064 239.827 249.688C239.606 248.416 239.236 247.174 238.723 245.988L238.734 245.866C240.347 240.248 272.858 225.636 275.225 223.928C279.113 221.177 282.373 217.632 284.791 213.528C286.599 210.646 287.959 206.604 288.291 200.472C288.468 196.05 286.411 193.105 253.537 189.663C244.547 188.777 239.272 182.263 236.274 176.251C235.727 174.956 235.17 173.783 234.612 172.61C234.079 171.24 233.652 169.831 233.333 168.395C238.707 152.958 247.738 139.906 261.016 130.045C261.74 129.386 258.125 130.214 258.848 129.555C259.692 128.786 265.201 126.566 266.242 126.066C267.513 125.466 260.801 122.616 254.876 123.31C248.841 123.99 247.56 124.71 244.339 126.076C245.676 124.745 249.926 123.001 248.929 123.013C242.424 124.01 234.34 127.792 227.429 132.075C227.416 131.329 227.558 130.589 227.847 129.901C224.626 131.267 216.717 136.795 214.414 141.472C214.514 140.576 214.558 139.674 214.547 138.772C212.094 140.818 209.881 143.136 207.95 145.681L207.829 145.79C189.15 138.265 172.713 137.778 158.803 141.152C155.76 138.096 154.273 140.33 147.349 125.118C146.879 124.202 147.71 126.022 147.349 125.118C146.21 122.168 148.044 129.054 147.349 125.118C135.707 134.304 120.389 144.714 113.036 152.063C112.945 152.356 121.614 149.613 113.036 152.063C110.032 152.921 110.236 154.703 109.78 170.813C109.67 172.034 109.767 173.402 109.668 174.502C103.794 181.986 99.7938 188.323 98.2808 191.607C90.6843 204.697 82.3178 225.103 74.2078 257.383C77.785 248.633 82.0978 240.203 87.0998 232.182C80.3558 249.316 73.8363 276.221 72.5328 317.655C74.1643 309.105 76.2561 300.649 78.7993 292.325C77.2072 326.7 83.1351 361.008 96.1693 392.855C100.834 404.266 108.549 421.583 121.684 440.555C162.95 483.975 221.156 511.005 285.61 511.005C352.896 511.006 413.317 481.566 454.837 434.818Z" fill="url(#paint2_linear)"/>
<path d="M405.05 466.354C486.485 456.924 522.534 373.004 476.24 371.354C434.424 370.017 366.477 470.804 405.05 466.354Z" fill="url(#paint3_radial)"/>
<path d="M482.103 354.212C538.131 321.605 523.523 251.172 523.523 251.172C523.523 251.172 501.9 276.291 487.21 316.332C472.7 355.981 448.418 373.906 482.103 354.212Z" fill="url(#paint4_radial)"/>
<path d="M304.237 508.031C382.351 532.956 449.487 471.421 408.104 450.871C370.478 432.338 267.162 496.245 304.237 508.031Z" fill="url(#paint5_radial)"/>
<path d="M487.924 384.117C489.824 381.436 492.394 372.85 494.664 369.012C508.455 346.75 508.553 329 508.553 328.594C516.883 286.984 516.127 269.994 511.003 238.572C506.877 213.272 488.842 177.026 473.218 159.572C457.118 141.589 468.461 147.449 452.872 134.313C439.209 119.167 425.961 104.167 418.746 98.1355C366.608 54.547 367.785 45.2885 368.789 43.71C368.62 43.8955 368.371 44.171 368.053 44.5315C367.436 42.07 367 40 367 40C367 40 338.5 68.5 332.5 116C328.583 147.01 340.191 179.338 357 200C365.753 210.708 375.644 220.432 386.5 229V228.987C399.2 247.226 406.19 269.731 406.19 293.941C406.19 354.563 357.02 403.707 296.364 403.707C288.097 403.711 279.857 402.786 271.797 400.948C243.179 395.494 226.653 381.057 218.411 371.257C213.687 365.64 211.679 361.545 211.679 361.545C237.321 370.731 265.672 368.809 282.913 359.286C300.287 349.654 310.8 342.513 319.332 345.328C327.742 348.131 334.437 339.995 328.431 331.56C322.546 323.138 307.231 311.076 284.492 314.418C267.098 316.951 251.164 329.297 228.372 317.34C226.905 316.577 225.477 315.74 224.096 314.83C222.593 313.944 228.979 316.177 227.489 315.171C223.054 313.012 215.202 308.307 213.167 306.634C212.828 306.356 216.609 307.714 216.268 307.434C194.957 291.709 197.617 281.088 198.288 274.425C198.824 269.095 202.695 262.265 209.217 259.495C212.367 261.035 214.331 262.212 214.331 262.212C214.331 262.212 212.986 259.752 212.26 258.455C212.514 258.358 212.757 258.383 213.01 258.286C215.591 259.402 221.298 262.3 224.303 264.07C228.216 266.544 229.464 268.749 229.464 268.749C229.464 268.749 230.494 268.242 229.732 266.085C229.453 265.2 228.268 262.389 224.391 259.552L224.633 259.577C226.935 260.749 229.132 262.117 231.201 263.663C232.294 260.102 234.259 256.385 233.827 249.734C233.563 245.058 233.685 243.846 232.765 242.04C231.941 240.49 233.227 239.885 234.656 241.497C234.409 240.225 233.998 238.991 233.434 237.825L233.447 237.704C235.232 232.132 271.214 217.641 273.833 215.947C278.053 213.298 281.662 209.782 284.421 205.633C286.421 202.775 287.927 198.766 288.294 192.685C288.417 189.945 287.574 187.776 278.044 185.702C272.325 184.457 263.477 183.246 249.828 181.965C239.878 181.087 234.04 174.627 230.722 168.665C230.117 167.381 229.5 166.216 228.882 165.055C228.295 163.703 227.822 162.305 227.467 160.874C233.421 145.287 244.143 131.978 258.106 122.843C258.906 122.189 254.906 123.011 255.706 122.357C256.64 121.595 262.737 119.393 263.889 118.897C265.296 118.304 257.867 115.477 251.31 116.164C244.631 116.839 243.213 117.553 239.648 118.908C241.128 117.588 245.832 115.858 244.729 115.87C237.529 116.859 228.579 120.609 220.929 124.856C220.915 124.112 221.073 123.374 221.391 122.701C217.827 124.055 209.073 129.537 206.524 134.175C206.634 133.288 206.683 132.393 206.671 131.498C203.987 133.499 201.538 135.797 199.371 138.349L199.238 138.457C178.564 130.995 160.372 130.512 144.977 133.857C141.609 130.827 136.194 126.245 128.531 111.158C128.01 110.249 127.73 113.035 127.33 112.138C124.353 105.232 122.554 93.916 122.85 86.115C122.85 86.115 116.691 88.922 111.593 100.645C110.647 102.752 110.039 103.915 109.433 105.077C109.154 105.416 110.065 101.227 109.92 101.455C109.034 102.955 106.742 105.052 105.734 107.765C105.042 109.775 104.072 110.901 103.452 113.409L103.307 113.638C103.257 112.899 103.491 110.598 103.321 111.07C100.931 115.897 98.875 120.882 97.1665 125.991C94.422 135.014 91.227 147.295 90.7205 163.273C90.5985 164.484 90.707 165.841 90.597 166.932C84.097 174.354 79.668 180.638 77.9935 183.895C69.59 196.881 60.33 217.118 51.3535 249.13C55.3472 240.385 60.123 232.02 65.6225 224.135C58.158 241.126 50.9425 267.809 49.5 308.9C51.3119 300.397 53.628 292.008 56.436 283.78C55.147 311.18 58.3385 345.15 75.6605 383.477C85.9455 406.02 109.621 451.801 167.471 487.526L167.465 487.53C167.465 487.53 187.146 502.18 220.974 513.159C223.474 514.066 226.007 514.959 228.591 515.826C227.78 515.498 226.996 515.154 226.234 514.8C248.75 521.546 272.128 524.982 295.634 525C383.224 525.075 409.056 489.9 409.056 489.9C409.056 489.9 408.965 489.969 408.8 490.089C410.036 488.925 411.226 487.715 412.371 486.46C398.552 499.51 367.014 500.376 355.221 499.435C375.333 493.528 388.567 488.531 414.309 478.675C417.321 477.558 420.402 476.285 423.55 474.855C423.89 474.705 424.234 474.542 424.576 474.387C425.2 474.096 425.819 473.821 426.449 473.515C438.992 467.605 450.785 460.222 461.581 451.522C487.431 430.872 493.055 410.743 495.995 397.471C495.585 398.743 494.308 401.709 493.41 403.629C486.753 417.87 471.989 426.609 455.956 434.103C463.586 424.093 470.661 413.672 477.15 402.887C482.383 397.695 484.016 389.574 487.924 384.117Z" fill="url(#paint6_radial)"/>
<path d="M456.461 433.491C467.001 421.87 476.466 408.579 483.635 393.507C502.085 354.716 530.611 290.217 508.144 222.854C490.388 169.613 466.008 140.5 435.054 112.061C384.782 65.878 370.741 45.2605 370.741 33C370.741 33 312.697 97.7045 337.87 165.191C363.044 232.677 414.6 230.202 448.71 300.628C488.847 383.5 416.235 473.934 356.188 499.246C359.864 498.43 489.673 469.055 496.495 394.806C496.34 396.171 493.415 416.707 456.461 433.491Z" fill="url(#paint7_radial)"/>
<path d="M288.296 192.686C288.492 188.301 286.218 185.356 249.955 181.955C235.035 180.577 229.322 166.788 227.581 160.984C222.276 174.767 220.085 189.229 221.263 206.723C222.068 218.183 229.767 230.483 233.448 237.705C233.448 237.705 234.266 236.642 234.643 236.249C241.574 229.034 270.611 218.04 273.339 216.479C276.346 214.579 287.791 206.217 288.296 192.686Z" fill="url(#paint8_linear)"/>
<path d="M128.657 111.236C128.137 110.327 127.857 113.113 127.457 112.216C124.48 105.31 122.668 94.1161 123.097 86.2051C123.097 86.2051 116.938 89.0121 111.841 100.735C110.894 102.843 110.287 104.005 109.681 105.168C109.402 105.507 110.313 101.318 110.168 101.546C109.282 103.046 106.99 105.142 105.995 107.733C105.169 109.853 104.32 110.991 103.688 113.619C103.494 114.334 103.884 110.458 103.714 110.93C91.8587 133.842 89.5957 168.487 90.8452 167.022C116.084 140.072 145.008 133.68 145.008 133.68C141.93 131.413 135.244 124.868 128.658 111.236H128.657Z" fill="url(#paint9_linear)"/>
<path d="M224.422 393.05C189.56 378.166 149.926 357.173 151.422 309.481C153.46 246.672 209.995 259.086 209.995 259.086C207.861 259.605 202.157 263.667 200.136 267.996C197.999 273.409 194.101 285.634 205.911 298.446C224.456 318.542 167.811 346.124 255.243 398.229C257.448 399.429 234.747 397.514 224.423 393.05H224.422Z" fill="url(#paint10_linear)"/>
<path d="M212.037 361.75C236.758 370.353 265.557 368.844 282.798 359.321C294.341 352.895 309.148 342.604 318.259 345.144C310.371 342.026 304.396 340.569 297.209 340.213C295.985 340.213 294.518 340.187 293.185 340.053C290.553 340.045 287.922 340.189 285.307 340.485C280.857 340.894 275.924 343.701 271.439 343.251C271.197 343.226 275.789 341.364 275.416 341.448C273.04 341.944 270.458 342.051 267.731 342.389C265.997 342.582 264.506 342.799 262.785 342.87C211.294 347.237 167.777 314.964 167.777 314.964C164.073 327.439 184.36 352.114 212.037 361.75H212.037Z" fill="url(#paint11_linear)"/>
<path d="M456.369 433.823C508.45 382.688 534.8 320.53 523.66 250.813C523.66 250.813 528.11 286.563 511.236 323.127C519.343 287.431 520.286 243.07 498.749 197.133C470.002 135.818 422.725 103.554 404.675 90.0944C377.328 69.6999 365.991 48.9349 365.787 44.6499C357.617 61.3884 332.904 118.75 363.132 168.15C391.452 214.432 436.064 228.169 467.296 270.623C524.833 348.833 456.369 433.823 456.369 433.823Z" fill="url(#paint12_linear)"/>
<path d="M448.907 300.776C430.706 263.175 407.989 246.775 386.5 229C389 232.5 389.616 233.737 391 236C409.913 256.158 437.803 305.328 417.555 367.053C379.44 483.241 226.983 428.528 211 413.159C217.466 480.404 330.018 512.582 403.3 468.974C445 429.5 478.734 362.394 448.907 300.776Z" fill="url(#paint13_linear)"/>
<defs>
<radialGradient id="paint0_radial" cx="0" cy="0" r="1" gradientUnits="userSpaceOnUse" gradientTransform="translate(503.595 156.098) rotate(2.55481) scale(171.954 252.742)">
<stop offset="0.045" stop-color="#FFEA00"/>
<stop offset="0.12" stop-color="#FFDE00"/>
<stop offset="0.254" stop-color="#FFBF00"/>
<stop offset="0.429" stop-color="#FF8E00"/>
<stop offset="0.769" stop-color="#FF272D"/>
<stop offset="0.872" stop-color="#E0255A"/>
<stop offset="0.953" stop-color="#CC2477"/>
<stop offset="1" stop-color="#C42482"/>
</radialGradient>
<radialGradient id="paint1_radial" cx="0" cy="0" r="1" gradientUnits="userSpaceOnUse" gradientTransform="translate(381.059 129.567) scale(484.628)">
<stop stop-color="#00CCDA"/>
<stop offset="0.22" stop-color="#0083FF"/>
<stop offset="0.261" stop-color="#007AF9"/>
<stop offset="0.33" stop-color="#0060E8"/>
<stop offset="0.333" stop-color="#005FE7"/>
<stop offset="0.438" stop-color="#2639AD"/>
<stop offset="0.522" stop-color="#401E84"/>
<stop offset="0.566" stop-color="#4A1475"/>
</radialGradient>
<linearGradient id="paint2_linear" x1="319.834" y1="397.594" x2="224.115" y2="84.4799" gradientUnits="userSpaceOnUse">
<stop stop-color="#000F43" stop-opacity="0.4"/>
<stop offset="0.485" stop-color="#001962" stop-opacity="0.173"/>
<stop offset="1" stop-color="#002079" stop-opacity="0"/>
</linearGradient>
<radialGradient id="paint3_radial" cx="0" cy="0" r="1" gradientUnits="userSpaceOnUse" gradientTransform="translate(545.858 350.726) rotate(5.76178) scale(163.493)">
<stop offset="0.003" stop-color="#FFEA00"/>
<stop offset="0.497" stop-color="#FF272D"/>
<stop offset="1" stop-color="#C42482"/>
</radialGradient>
<radialGradient id="paint4_radial" cx="0" cy="0" r="1" gradientUnits="userSpaceOnUse" gradientTransform="translate(546.879 193.263) rotate(5.76178) scale(273.02)">
<stop offset="0.003" stop-color="#FFE900"/>
<stop offset="0.157" stop-color="#FFAF0E"/>
<stop offset="0.316" stop-color="#FF7A1B"/>
<stop offset="0.472" stop-color="#FF4E26"/>
<stop offset="0.621" stop-color="#FF2C2E"/>
<stop offset="0.762" stop-color="#FF1434"/>
<stop offset="0.892" stop-color="#FF0538"/>
<stop offset="1" stop-color="#FF0039"/>
</radialGradient>
<radialGradient id="paint5_radial" cx="0" cy="0" r="1" gradientUnits="userSpaceOnUse" gradientTransform="translate(559.891 448.946) rotate(5.76178) scale(250.526)">
<stop offset="0.003" stop-color="#FF272D"/>
<stop offset="0.497" stop-color="#C42482"/>
<stop offset="0.986" stop-color="#620700"/>
</radialGradient>
<radialGradient id="paint6_radial" cx="0" cy="0" r="1" gradientUnits="userSpaceOnUse" gradientTransform="translate(407.095 230.021) scale(391.09)">
<stop offset="0.156" stop-color="#FFEA00"/>
<stop offset="0.231" stop-color="#FFDE00"/>
<stop offset="0.365" stop-color="#FFBF00"/>
<stop offset="0.541" stop-color="#FF8E00"/>
<stop offset="0.763" stop-color="#FF272D"/>
<stop offset="0.796" stop-color="#F92433"/>
<stop offset="0.841" stop-color="#E91C45"/>
<stop offset="0.893" stop-color="#CF0E62"/>
<stop offset="0.935" stop-color="#B5007F"/>
</radialGradient>
<radialGradient id="paint7_radial" cx="0" cy="0" r="1" gradientUnits="userSpaceOnUse" gradientTransform="translate(377.67 33.6445) scale(461.808)">
<stop offset="0.279" stop-color="#FFEA00"/>
<stop offset="0.402" stop-color="#FFDD00"/>
<stop offset="0.63" stop-color="#FFBA00"/>
<stop offset="0.856" stop-color="#FF9100"/>
<stop offset="0.933" stop-color="#FF6711"/>
<stop offset="0.994" stop-color="#FF4A1D"/>
</radialGradient>
<linearGradient id="paint8_linear" x1="139.049" y1="210.435" x2="316.825" y2="183.744" gradientUnits="userSpaceOnUse">
<stop stop-color="#C42482" stop-opacity="0.5"/>
<stop offset="0.474" stop-color="#FF272D" stop-opacity="0.5"/>
<stop offset="0.486" stop-color="#FF2C2C" stop-opacity="0.513"/>
<stop offset="0.675" stop-color="#FF7A1A" stop-opacity="0.72"/>
<stop offset="0.829" stop-color="#FFB20D" stop-opacity="0.871"/>
<stop offset="0.942" stop-color="#FFD605" stop-opacity="0.964"/>
<stop offset="1" stop-color="#FFE302"/>
</linearGradient>
<linearGradient id="paint9_linear" x1="121.313" y1="162.937" x2="101.156" y2="90.6345" gradientUnits="userSpaceOnUse">
<stop stop-color="#891551" stop-opacity="0.6"/>
<stop offset="1" stop-color="#C42482" stop-opacity="0"/>
</linearGradient>
<linearGradient id="paint10_linear" x1="159.743" y1="267.483" x2="201.218" y2="325.365" gradientUnits="userSpaceOnUse">
<stop offset="0.005" stop-color="#891551" stop-opacity="0.5"/>
<stop offset="0.484" stop-color="#FF272D" stop-opacity="0.5"/>
<stop offset="1" stop-color="#FF272D" stop-opacity="0"/>
</linearGradient>
<linearGradient id="paint11_linear" x1="239.04" y1="368.816" x2="242.813" y2="331.616" gradientUnits="userSpaceOnUse">
<stop stop-color="#C42482"/>
<stop offset="0.083" stop-color="#C42482" stop-opacity="0.81"/>
<stop offset="0.206" stop-color="#C42482" stop-opacity="0.565"/>
<stop offset="0.328" stop-color="#C42482" stop-opacity="0.362"/>
<stop offset="0.447" stop-color="#C42482" stop-opacity="0.204"/>
<stop offset="0.562" stop-color="#C42482" stop-opacity="0.091"/>
<stop offset="0.673" stop-color="#C42482" stop-opacity="0.023"/>
<stop offset="0.773" stop-color="#C42482" stop-opacity="0"/>
</linearGradient>
<linearGradient id="paint12_linear" x1="359.765" y1="51.0599" x2="512.593" y2="392.807" gradientUnits="userSpaceOnUse">
<stop stop-color="#FFF14F"/>
<stop offset="0.268" stop-color="#FFEE4C"/>
<stop offset="0.452" stop-color="#FFE643"/>
<stop offset="0.612" stop-color="#FFD834"/>
<stop offset="0.757" stop-color="#FFC41E"/>
<stop offset="0.892" stop-color="#FFAB02"/>
<stop offset="0.902" stop-color="#FFA900"/>
<stop offset="0.949" stop-color="#FFA000"/>
<stop offset="1" stop-color="#FF9100"/>
</linearGradient>
<linearGradient id="paint13_linear" x1="389.943" y1="247.605" x2="317.549" y2="441.98" gradientUnits="userSpaceOnUse">
<stop stop-color="#FF8E00"/>
<stop offset="0.04" stop-color="#FF8E00" stop-opacity="0.858"/>
<stop offset="0.084" stop-color="#FF8E00" stop-opacity="0.729"/>
<stop offset="0.13" stop-color="#FF8E00" stop-opacity="0.628"/>
<stop offset="0.178" stop-color="#FF8E00" stop-opacity="0.557"/>
<stop offset="0.227" stop-color="#FF8E00" stop-opacity="0.514"/>
<stop offset="0.282" stop-color="#FF8E00" stop-opacity="0.5"/>
<stop offset="0.389" stop-color="#FF8E00" stop-opacity="0.478"/>
<stop offset="0.524" stop-color="#FF8E00" stop-opacity="0.416"/>
<stop offset="0.676" stop-color="#FF8E00" stop-opacity="0.314"/>
<stop offset="0.838" stop-color="#FF8E00" stop-opacity="0.172"/>
<stop offset="1" stop-color="#FF8E00" stop-opacity="0"/>
</linearGradient>
</defs>
</svg>
