<svg width="512" height="512" viewBox="0 0 512 512" fill="none" xmlns="http://www.w3.org/2000/svg">
<path d="M402.643 46.7791C390.669 60.7211 385.093 92.0986 397.234 123.907C409.375 155.716 427.984 148.807 439.584 181.244C454.895 224.044 447.768 281.538 447.768 281.538C447.768 281.538 466.175 334.843 479.002 278.222C507.394 171.87 402.643 72.9686 402.643 46.7791Z" fill="url(#paint0_radial)"/>
<path d="M256.536 488.319C379.154 488.319 478.486 388.449 478.486 265.305C478.486 142.16 379.154 42.2915 256.655 42.2915C134.156 42.2915 34.8249 142.161 34.8249 265.305C34.5874 388.568 134.036 488.319 256.536 488.319Z" fill="url(#paint1_radial)"/>
<path d="M422.837 402.818C418.039 406.203 413.006 409.241 407.776 411.909C414.704 401.757 421.096 391.25 426.926 380.429C431.656 375.194 435.989 370.105 439.52 364.602C441.238 361.899 443.176 358.563 445.228 354.693C457.688 332.243 471.428 295.911 471.817 258.593V258.503C471.826 257.584 471.832 256.665 471.824 255.745C471.889 246.378 470.931 237.031 468.968 227.871C469.068 228.587 469.156 229.302 469.246 230.017C469.136 229.467 469.043 228.911 468.924 228.36C469.107 229.377 469.254 230.36 469.412 231.351C471.959 252.96 470.145 274.037 461.071 289.576C460.928 289.803 460.781 290.016 460.637 290.238C465.342 266.621 466.916 240.544 461.681 214.438C461.681 214.438 459.587 201.746 443.993 163.217C435.017 141.041 419.076 122.859 404.993 109.614C392.648 94.341 381.436 84.0915 375.255 77.584C362.345 63.9895 356.934 53.7995 354.712 47.1505C352.785 46.1845 328.144 22.247 326.187 21.335C315.431 38.011 281.606 90.1725 297.696 138.908C304.988 160.994 323.43 183.916 342.73 196.776C343.577 197.744 354.214 209.297 359.273 235.354C364.496 262.275 361.75 283.282 351 314.346C338.357 341.598 305.966 368.54 275.638 371.296C210.8 377.186 187.063 338.742 187.063 338.742C210.231 348.004 235.847 346.067 251.425 336.464C267.125 326.751 276.622 319.55 284.33 322.39C291.93 325.216 297.98 317.012 292.551 308.506C288.359 302.049 282.36 296.967 275.301 293.893C268.242 290.82 260.435 289.89 252.851 291.22C237.135 293.774 222.738 306.224 202.145 294.167C200.812 293.394 199.522 292.549 198.281 291.636C196.923 290.743 202.694 292.994 201.347 291.98C197.34 289.803 190.247 285.059 188.407 283.371C188.101 283.09 191.517 284.461 191.21 284.179C171.955 268.323 174.36 257.612 174.965 250.894C175.45 245.52 178.947 238.633 184.841 235.839C187.687 237.393 189.461 238.579 189.461 238.579C189.461 238.579 188.247 236.098 187.59 234.791C187.82 234.691 188.04 234.717 188.269 234.62C190.601 235.745 195.758 238.67 198.473 240.453C202.009 242.947 203.136 245.171 203.136 245.171C203.136 245.171 204.067 244.659 203.378 242.484C203.128 241.592 202.055 238.757 198.552 235.897L198.771 235.921C200.868 237.116 202.853 238.495 204.705 240.042C205.692 236.451 207.468 232.702 207.078 225.996C206.839 221.28 206.949 220.059 206.118 218.238C205.374 216.674 206.535 216.064 207.827 217.688C207.606 216.416 207.236 215.174 206.723 213.988L206.734 213.866C208.347 208.248 240.858 193.636 243.225 191.928C247.113 189.177 250.373 185.632 252.791 181.528C254.599 178.646 255.959 174.604 256.291 168.472C256.468 164.05 254.411 161.105 221.537 157.663C212.547 156.777 207.272 150.263 204.274 144.251C203.727 142.956 203.17 141.783 202.612 140.61C202.079 139.24 201.652 137.831 201.333 136.395C206.707 120.958 215.738 107.906 229.016 98.045C229.74 97.386 226.125 98.214 226.848 97.555C227.692 96.786 233.201 94.5665 234.242 94.0665C235.513 93.4665 228.801 90.6165 222.876 91.3105C216.841 91.9905 215.56 92.7105 212.339 94.076C213.676 92.7455 217.926 91.0015 216.929 91.013C210.424 92.0105 202.34 95.792 195.429 100.075C195.416 99.3291 195.558 98.5887 195.847 97.901C192.626 99.267 184.717 104.795 182.414 109.472C182.514 108.576 182.558 107.674 182.547 106.772C180.094 108.818 177.881 111.136 175.95 113.681L175.829 113.79C157.15 106.265 140.713 105.778 126.803 109.152C123.76 106.096 122.273 108.33 115.349 93.118C114.879 92.202 115.71 94.0225 115.349 93.118C114.21 90.168 116.044 97.054 115.349 93.118C103.707 102.304 88.3893 112.714 81.0363 120.063C80.9453 120.356 89.6143 117.613 81.0363 120.063C78.0323 120.921 78.2363 122.703 77.7798 138.813C77.6698 140.034 77.7673 141.402 77.6683 142.502C71.7943 149.986 67.7938 156.323 66.2808 159.607C58.6843 172.697 50.3178 193.103 42.2078 225.383C45.785 216.633 50.0978 208.203 55.0998 200.182C48.3558 217.316 41.8363 244.221 40.5328 285.655C42.1643 277.105 44.2561 268.649 46.7993 260.325C45.2072 294.7 51.1351 329.008 64.1693 360.855C68.8338 372.266 76.5493 389.583 89.6838 408.555C130.95 451.975 189.156 479.005 253.61 479.005C320.896 479.006 381.317 449.566 422.837 402.818Z" fill="url(#paint2_linear)"/>
<path d="M373.05 434.354C454.485 424.924 490.534 341.004 444.24 339.354C402.424 338.017 334.477 438.804 373.05 434.354Z" fill="url(#paint3_radial)"/>
<path d="M450.103 322.212C506.131 289.605 491.523 219.172 491.523 219.172C491.523 219.172 469.9 244.291 455.21 284.332C440.7 323.981 416.418 341.906 450.103 322.212Z" fill="url(#paint4_radial)"/>
<path d="M272.237 476.031C350.351 500.956 417.487 439.421 376.104 418.871C338.478 400.338 235.162 464.245 272.237 476.031Z" fill="url(#paint5_radial)"/>
<path d="M455.924 352.117C457.824 349.436 460.394 340.85 462.664 337.012C476.455 314.75 476.553 297 476.553 296.594C484.883 254.984 484.127 237.994 479.003 206.572C474.877 181.272 456.842 145.026 441.218 127.572C425.118 109.589 436.461 115.449 420.872 102.313C407.209 87.1665 393.961 72.1675 386.746 66.1355C334.608 22.547 335.785 13.2885 336.789 11.71C336.62 11.8955 336.371 12.171 336.053 12.5315C335.436 10.07 335 8 335 8C335 8 306.5 36.5 300.5 84C296.583 115.01 308.191 147.338 325 168C333.753 178.708 343.644 188.432 354.5 197V196.987C367.2 215.226 374.19 237.731 374.19 261.941C374.19 322.563 325.02 371.707 264.364 371.707C256.097 371.711 247.857 370.786 239.797 368.948C211.179 363.494 194.653 349.057 186.411 339.257C181.687 333.64 179.679 329.545 179.679 329.545C205.321 338.731 233.672 336.809 250.913 327.286C268.287 317.654 278.8 310.513 287.332 313.328C295.742 316.131 302.437 307.995 296.431 299.56C290.546 291.138 275.231 279.076 252.492 282.418C235.098 284.951 219.164 297.297 196.372 285.34C194.905 284.577 193.477 283.74 192.096 282.83C190.593 281.944 196.979 284.177 195.489 283.171C191.054 281.012 183.202 276.307 181.167 274.634C180.828 274.356 184.609 275.714 184.268 275.434C162.957 259.709 165.617 249.088 166.288 242.425C166.824 237.095 170.695 230.265 177.217 227.495C180.367 229.035 182.331 230.212 182.331 230.212C182.331 230.212 180.986 227.752 180.26 226.455C180.514 226.358 180.757 226.383 181.01 226.286C183.591 227.402 189.298 230.3 192.303 232.07C196.216 234.544 197.464 236.749 197.464 236.749C197.464 236.749 198.494 236.242 197.732 234.085C197.453 233.2 196.268 230.389 192.391 227.552L192.633 227.577C194.935 228.749 197.132 230.117 199.201 231.663C200.294 228.102 202.259 224.385 201.827 217.734C201.563 213.058 201.685 211.846 200.765 210.04C199.941 208.49 201.227 207.885 202.656 209.497C202.409 208.225 201.998 206.991 201.434 205.825L201.447 205.704C203.232 200.132 239.214 185.641 241.833 183.947C246.053 181.298 249.662 177.782 252.421 173.633C254.421 170.775 255.927 166.766 256.294 160.685C256.417 157.945 255.574 155.776 246.044 153.702C240.325 152.457 231.477 151.246 217.828 149.965C207.878 149.087 202.04 142.627 198.722 136.665C198.117 135.381 197.5 134.216 196.882 133.055C196.295 131.703 195.822 130.305 195.467 128.874C201.421 113.287 212.143 99.9779 226.106 90.843C226.906 90.189 222.906 91.0105 223.706 90.357C224.64 89.5945 230.737 87.3935 231.889 86.8975C233.296 86.3045 225.867 83.4775 219.31 84.1645C212.631 84.839 211.213 85.5525 207.648 86.9075C209.128 85.588 213.832 83.8575 212.729 83.87C205.529 84.859 196.579 88.6095 188.929 92.8565C188.915 92.1119 189.073 91.374 189.391 90.7005C185.827 92.055 177.073 97.5375 174.524 102.175C174.634 101.288 174.683 100.393 174.671 99.4985C171.987 101.499 169.538 103.797 167.371 106.349L167.238 106.457C146.564 98.995 128.372 98.512 112.977 101.857C109.609 98.827 104.194 94.2445 96.5305 79.1575C96.01 78.249 95.7305 81.035 95.3305 80.138C92.353 73.2315 90.554 61.916 90.8495 54.115C90.8495 54.115 84.6905 56.922 79.593 68.645C78.6465 70.7525 78.0395 71.915 77.433 73.0775C77.154 73.4165 78.0655 69.2275 77.92 69.4555C77.034 70.9555 74.742 73.0515 73.7345 75.7645C73.0425 77.775 72.072 78.901 71.4525 81.4085L71.307 81.6385C71.257 80.8995 71.4905 78.598 71.3205 79.07C68.9312 83.8973 66.875 88.8824 65.1665 93.9905C62.422 103.014 59.227 115.295 58.7205 131.273C58.5985 132.484 58.707 133.841 58.597 134.932C52.097 142.354 47.668 148.638 45.9935 151.895C37.59 164.881 28.33 185.118 19.3535 217.13C23.3472 208.385 28.123 200.02 33.6225 192.135C26.158 209.126 18.9425 235.809 17.5 276.9C19.3119 268.397 21.628 260.008 24.436 251.78C23.147 279.18 26.3385 313.15 43.6605 351.477C53.9455 374.02 77.621 419.801 135.471 455.526L135.465 455.53C135.465 455.53 155.146 470.18 188.974 481.159C191.474 482.066 194.007 482.959 196.591 483.826C195.78 483.498 194.996 483.154 194.234 482.8C216.75 489.546 240.128 492.982 263.634 493C351.224 493.075 377.056 457.9 377.056 457.9C377.056 457.9 376.965 457.969 376.8 458.089C378.036 456.925 379.226 455.715 380.371 454.46C366.552 467.51 335.014 468.376 323.221 467.435C343.333 461.528 356.567 456.531 382.309 446.675C385.321 445.558 388.402 444.285 391.55 442.855C391.89 442.705 392.234 442.542 392.576 442.387C393.2 442.096 393.819 441.821 394.449 441.515C406.992 435.605 418.785 428.222 429.581 419.522C455.431 398.872 461.055 378.743 463.995 365.471C463.585 366.743 462.308 369.709 461.41 371.629C454.753 385.87 439.989 394.609 423.956 402.103C431.586 392.093 438.661 381.672 445.15 370.887C450.383 365.695 452.016 357.574 455.924 352.117Z" fill="url(#paint6_radial)"/>
<path d="M424.461 401.491C435.001 389.87 444.466 376.579 451.635 361.507C470.085 322.716 498.611 258.217 476.144 190.854C458.388 137.613 434.008 108.5 403.054 80.061C352.782 33.878 338.741 13.2605 338.741 1C338.741 1 280.697 65.7045 305.87 133.191C331.044 200.677 382.6 198.202 416.71 268.628C456.847 351.5 384.235 441.934 324.188 467.246C327.864 466.43 457.673 437.055 464.495 362.806C464.34 364.171 461.415 384.707 424.461 401.491Z" fill="url(#paint7_radial)"/>
<path d="M256.296 160.686C256.492 156.301 254.218 153.356 217.955 149.955C203.035 148.577 197.322 134.788 195.581 128.984C190.276 142.767 188.085 157.229 189.263 174.723C190.068 186.183 197.767 198.483 201.448 205.705C201.448 205.705 202.266 204.642 202.643 204.249C209.574 197.034 238.611 186.04 241.339 184.479C244.346 182.579 255.791 174.217 256.296 160.686Z" fill="url(#paint8_linear)"/>
<path d="M96.6572 79.2356C96.1367 78.3266 95.8572 81.1126 95.4572 80.2161C92.4797 73.3096 90.6682 62.1161 91.0972 54.2051C91.0972 54.2051 84.9382 57.0121 79.8407 68.7351C78.8942 70.8426 78.2872 72.0051 77.6807 73.1676C77.4017 73.5066 78.3132 69.3176 78.1677 69.5456C77.2822 71.0456 74.9902 73.1416 73.9947 75.7331C73.1692 77.8526 72.3202 78.9906 71.6882 81.6191C71.4937 82.3336 71.8842 78.4576 71.7142 78.9296C59.8587 101.842 57.5957 136.487 58.8452 135.022C84.0842 108.072 113.008 101.68 113.008 101.68C109.93 99.4131 103.244 92.8676 96.6577 79.2356H96.6572Z" fill="url(#paint9_linear)"/>
<path d="M192.422 361.05C157.56 346.165 117.926 325.172 119.422 277.481C121.46 214.671 177.995 227.085 177.995 227.085C175.861 227.605 170.157 231.666 168.136 235.995C165.999 241.409 162.101 253.633 173.911 266.445C192.456 286.541 135.811 314.123 223.243 366.229C225.448 367.429 202.747 365.514 192.423 361.05H192.422Z" fill="url(#paint10_linear)"/>
<path d="M180.037 329.75C204.758 338.353 233.557 336.844 250.798 327.321C262.341 320.895 277.148 310.604 286.259 313.144C278.371 310.026 272.396 308.569 265.209 308.213C263.985 308.213 262.518 308.187 261.185 308.053C258.553 308.045 255.922 308.189 253.307 308.485C248.857 308.894 243.924 311.701 239.439 311.251C239.197 311.226 243.789 309.364 243.416 309.448C241.04 309.944 238.458 310.051 235.731 310.389C233.997 310.582 232.506 310.799 230.785 310.87C179.294 315.237 135.777 282.964 135.777 282.964C132.073 295.439 152.36 320.114 180.037 329.75H180.037Z" fill="url(#paint11_linear)"/>
<path d="M424.369 401.823C476.45 350.688 502.8 288.53 491.66 218.813C491.66 218.813 496.11 254.563 479.236 291.127C487.343 255.431 488.286 211.07 466.749 165.133C438.002 103.818 390.725 71.5544 372.675 58.0944C345.328 37.6999 333.991 16.9349 333.787 12.6499C325.617 29.3884 300.904 86.7499 331.132 136.15C359.452 182.432 404.064 196.169 435.296 238.623C492.833 316.833 424.369 401.823 424.369 401.823Z" fill="url(#paint12_linear)"/>
<path d="M416.907 268.776C398.706 231.175 375.989 214.775 354.5 197C357 200.5 357.616 201.737 359 204C377.913 224.158 405.803 273.328 385.555 335.053C347.44 451.241 194.983 396.528 179 381.159C185.466 448.404 298.018 480.582 371.3 436.974C413 397.5 446.734 330.394 416.907 268.776Z" fill="url(#paint13_linear)"/>
<defs>
<radialGradient id="paint0_radial" cx="0" cy="0" r="1" gradientUnits="userSpaceOnUse" gradientTransform="translate(471.595 124.098) rotate(2.55481) scale(171.954 252.742)">
<stop offset="0.045" stop-color="#FFEA00"/>
<stop offset="0.12" stop-color="#FFDE00"/>
<stop offset="0.254" stop-color="#FFBF00"/>
<stop offset="0.429" stop-color="#FF8E00"/>
<stop offset="0.769" stop-color="#FF272D"/>
<stop offset="0.872" stop-color="#E0255A"/>
<stop offset="0.953" stop-color="#CC2477"/>
<stop offset="1" stop-color="#C42482"/>
</radialGradient>
<radialGradient id="paint1_radial" cx="0" cy="0" r="1" gradientUnits="userSpaceOnUse" gradientTransform="translate(349.059 97.5666) scale(484.628)">
<stop stop-color="#00CCDA"/>
<stop offset="0.22" stop-color="#0083FF"/>
<stop offset="0.261" stop-color="#007AF9"/>
<stop offset="0.33" stop-color="#0060E8"/>
<stop offset="0.333" stop-color="#005FE7"/>
<stop offset="0.438" stop-color="#2639AD"/>
<stop offset="0.522" stop-color="#401E84"/>
<stop offset="0.566" stop-color="#4A1475"/>
</radialGradient>
<linearGradient id="paint2_linear" x1="287.834" y1="365.594" x2="192.115" y2="52.4799" gradientUnits="userSpaceOnUse">
<stop stop-color="#000F43" stop-opacity="0.4"/>
<stop offset="0.485" stop-color="#001962" stop-opacity="0.173"/>
<stop offset="1" stop-color="#002079" stop-opacity="0"/>
</linearGradient>
<radialGradient id="paint3_radial" cx="0" cy="0" r="1" gradientUnits="userSpaceOnUse" gradientTransform="translate(513.858 318.726) rotate(5.76178) scale(163.493)">
<stop offset="0.003" stop-color="#FFEA00"/>
<stop offset="0.497" stop-color="#FF272D"/>
<stop offset="1" stop-color="#C42482"/>
</radialGradient>
<radialGradient id="paint4_radial" cx="0" cy="0" r="1" gradientUnits="userSpaceOnUse" gradientTransform="translate(514.879 161.263) rotate(5.76178) scale(273.02)">
<stop offset="0.003" stop-color="#FFE900"/>
<stop offset="0.157" stop-color="#FFAF0E"/>
<stop offset="0.316" stop-color="#FF7A1B"/>
<stop offset="0.472" stop-color="#FF4E26"/>
<stop offset="0.621" stop-color="#FF2C2E"/>
<stop offset="0.762" stop-color="#FF1434"/>
<stop offset="0.892" stop-color="#FF0538"/>
<stop offset="1" stop-color="#FF0039"/>
</radialGradient>
<radialGradient id="paint5_radial" cx="0" cy="0" r="1" gradientUnits="userSpaceOnUse" gradientTransform="translate(527.891 416.946) rotate(5.76178) scale(250.526)">
<stop offset="0.003" stop-color="#FF272D"/>
<stop offset="0.497" stop-color="#C42482"/>
<stop offset="0.986" stop-color="#620700"/>
</radialGradient>
<radialGradient id="paint6_radial" cx="0" cy="0" r="1" gradientUnits="userSpaceOnUse" gradientTransform="translate(375.095 198.021) scale(391.09)">
<stop offset="0.156" stop-color="#FFEA00"/>
<stop offset="0.231" stop-color="#FFDE00"/>
<stop offset="0.365" stop-color="#FFBF00"/>
<stop offset="0.541" stop-color="#FF8E00"/>
<stop offset="0.763" stop-color="#FF272D"/>
<stop offset="0.796" stop-color="#F92433"/>
<stop offset="0.841" stop-color="#E91C45"/>
<stop offset="0.893" stop-color="#CF0E62"/>
<stop offset="0.935" stop-color="#B5007F"/>
</radialGradient>
<radialGradient id="paint7_radial" cx="0" cy="0" r="1" gradientUnits="userSpaceOnUse" gradientTransform="translate(345.67 1.64449) scale(461.808)">
<stop offset="0.279" stop-color="#FFEA00"/>
<stop offset="0.402" stop-color="#FFDD00"/>
<stop offset="0.63" stop-color="#FFBA00"/>
<stop offset="0.856" stop-color="#FF9100"/>
<stop offset="0.933" stop-color="#FF6711"/>
<stop offset="0.994" stop-color="#FF4A1D"/>
</radialGradient>
<linearGradient id="paint8_linear" x1="107.049" y1="178.435" x2="284.825" y2="151.744" gradientUnits="userSpaceOnUse">
<stop stop-color="#C42482" stop-opacity="0.5"/>
<stop offset="0.474" stop-color="#FF272D" stop-opacity="0.5"/>
<stop offset="0.486" stop-color="#FF2C2C" stop-opacity="0.513"/>
<stop offset="0.675" stop-color="#FF7A1A" stop-opacity="0.72"/>
<stop offset="0.829" stop-color="#FFB20D" stop-opacity="0.871"/>
<stop offset="0.942" stop-color="#FFD605" stop-opacity="0.964"/>
<stop offset="1" stop-color="#FFE302"/>
</linearGradient>
<linearGradient id="paint9_linear" x1="89.3129" y1="130.937" x2="69.1557" y2="58.6345" gradientUnits="userSpaceOnUse">
<stop stop-color="#891551" stop-opacity="0.6"/>
<stop offset="1" stop-color="#C42482" stop-opacity="0"/>
</linearGradient>
<linearGradient id="paint10_linear" x1="127.743" y1="235.483" x2="169.218" y2="293.365" gradientUnits="userSpaceOnUse">
<stop offset="0.005" stop-color="#891551" stop-opacity="0.5"/>
<stop offset="0.484" stop-color="#FF272D" stop-opacity="0.5"/>
<stop offset="1" stop-color="#FF272D" stop-opacity="0"/>
</linearGradient>
<linearGradient id="paint11_linear" x1="207.04" y1="336.816" x2="210.813" y2="299.616" gradientUnits="userSpaceOnUse">
<stop stop-color="#C42482"/>
<stop offset="0.083" stop-color="#C42482" stop-opacity="0.81"/>
<stop offset="0.206" stop-color="#C42482" stop-opacity="0.565"/>
<stop offset="0.328" stop-color="#C42482" stop-opacity="0.362"/>
<stop offset="0.447" stop-color="#C42482" stop-opacity="0.204"/>
<stop offset="0.562" stop-color="#C42482" stop-opacity="0.091"/>
<stop offset="0.673" stop-color="#C42482" stop-opacity="0.023"/>
<stop offset="0.773" stop-color="#C42482" stop-opacity="0"/>
</linearGradient>
<linearGradient id="paint12_linear" x1="327.765" y1="19.0599" x2="480.593" y2="360.807" gradientUnits="userSpaceOnUse">
<stop stop-color="#FFF14F"/>
<stop offset="0.268" stop-color="#FFEE4C"/>
<stop offset="0.452" stop-color="#FFE643"/>
<stop offset="0.612" stop-color="#FFD834"/>
<stop offset="0.757" stop-color="#FFC41E"/>
<stop offset="0.892" stop-color="#FFAB02"/>
<stop offset="0.902" stop-color="#FFA900"/>
<stop offset="0.949" stop-color="#FFA000"/>
<stop offset="1" stop-color="#FF9100"/>
</linearGradient>
<linearGradient id="paint13_linear" x1="357.943" y1="215.605" x2="285.549" y2="409.98" gradientUnits="userSpaceOnUse">
<stop stop-color="#FF8E00"/>
<stop offset="0.04" stop-color="#FF8E00" stop-opacity="0.858"/>
<stop offset="0.084" stop-color="#FF8E00" stop-opacity="0.729"/>
<stop offset="0.13" stop-color="#FF8E00" stop-opacity="0.628"/>
<stop offset="0.178" stop-color="#FF8E00" stop-opacity="0.557"/>
<stop offset="0.227" stop-color="#FF8E00" stop-opacity="0.514"/>
<stop offset="0.282" stop-color="#FF8E00" stop-opacity="0.5"/>
<stop offset="0.389" stop-color="#FF8E00" stop-opacity="0.478"/>
<stop offset="0.524" stop-color="#FF8E00" stop-opacity="0.416"/>
<stop offset="0.676" stop-color="#FF8E00" stop-opacity="0.314"/>
<stop offset="0.838" stop-color="#FF8E00" stop-opacity="0.172"/>
<stop offset="1" stop-color="#FF8E00" stop-opacity="0"/>
</linearGradient>
</defs>
</svg>
