<svg width="576" height="576" viewBox="0 0 576 576" fill="none" xmlns="http://www.w3.org/2000/svg">
<circle cx="288" cy="288" r="288" fill="#FCFCFA"/>
<path d="M288 32C146.603 32 32 146.603 32 288C32 429.397 146.603 544 288 544C429.397 544 544 429.397 544 288C544 146.603 429.397 32 288 32ZM145.749 430.208C107.136 391.595 87.8933 341.163 87.296 290.56L285.44 488.704C234.837 488.107 184.405 468.864 145.749 430.208V430.208ZM332.501 484.011L91.9893 243.499C112.256 153.856 192.256 86.8693 288 86.8693C354.944 86.8693 414.08 119.723 450.645 170.027L422.656 193.707C392.875 151.253 343.68 123.435 288 123.435C216.448 123.435 155.605 169.387 132.992 233.301L342.741 443.051C395.392 424.405 435.755 379.819 448.384 324.608H361.131V288H489.131C489.131 383.787 422.144 463.744 332.501 484.011V484.011Z" fill="#663399"/>
</svg>
