<svg width="576" height="576" viewBox="0 0 576 576" fill="none" xmlns="http://www.w3.org/2000/svg">
<path fill-rule="evenodd" clip-rule="evenodd" d="M430.552 38.3494C419.152 31.7115 406.755 28.7332 394.597 28.2719C393.511 28.1606 392.409 28.1035 391.294 28.1035C369.794 28.1035 347.934 35.6014 327.594 46.5569C314.213 53.7647 300.666 62.9109 287.227 73.6499C273.798 62.9961 260.265 53.9316 246.899 46.7914C226.549 35.9198 204.727 28.5199 183.296 28.5199C182.206 28.5199 181.128 28.5745 180.066 28.681C167.727 29.1181 155.294 32.105 143.802 38.7219L143.786 38.7309C116.939 54.2089 105.168 83.193 101.112 111.152C98.0751 132.083 98.7564 155.77 102.494 180.799C78.9403 190.093 58.0909 201.357 41.4904 214.457C19.3166 231.954 0.138428 256.62 0.138428 287.569C0.138428 318.592 19.394 343.314 41.65 360.834C58.3316 373.966 79.2845 385.243 102.952 394.523C99.2495 419.639 98.6089 443.398 101.693 464.382C105.804 492.357 117.623 521.317 144.454 536.788C156.948 544.063 170.619 546.93 183.921 546.93C205.421 546.93 227.281 539.432 247.621 528.477C261.002 521.269 274.549 512.123 287.988 501.384C301.417 512.037 314.95 521.102 328.315 528.242C348.666 539.114 370.488 546.514 391.919 546.514C405.308 546.514 418.917 543.611 431.413 536.416L431.429 536.407C458.276 520.929 470.047 491.945 474.103 463.985C477.14 443.055 476.459 419.369 472.721 394.341C496.205 385.065 517.003 373.801 533.57 360.698C555.714 343.184 574.868 318.496 574.868 287.569C574.868 256.546 555.613 231.823 533.357 214.303C516.675 201.171 495.722 189.895 472.054 180.615C475.757 155.499 476.398 131.739 473.314 110.756C469.203 82.7804 457.384 53.82 430.552 38.3494ZM287.399 335.144C313.674 335.144 334.974 313.844 334.974 287.569C334.974 261.294 313.674 239.994 287.399 239.994C261.124 239.994 239.824 261.294 239.824 287.569C239.824 313.844 261.124 335.144 287.399 335.144ZM419.002 410.678C418.984 410.524 418.965 410.369 418.946 410.215L418.971 410.421L419.002 410.678Z" fill="#FCFCFA"/>
<path d="M542.868 287.569C542.868 253.735 500.498 221.672 435.538 201.788C450.529 135.578 443.866 82.9021 414.509 66.0374C407.742 62.0815 399.831 60.2076 391.19 60.2076V83.4226C395.979 83.4226 399.831 84.3595 403.058 86.1293C417.216 94.2493 423.358 125.168 418.569 164.935C417.424 174.721 415.55 185.027 413.26 195.542C392.856 190.545 370.578 186.693 347.154 184.194C333.1 164.935 318.526 147.446 303.848 132.143C337.785 100.6 369.641 83.3185 391.294 83.3185V60.1035C362.666 60.1035 325.189 80.5077 287.295 115.903C249.402 80.7159 211.924 60.5199 183.296 60.5199V83.7349C204.845 83.7349 236.805 100.912 270.743 132.247C256.168 147.55 241.594 164.935 227.748 184.194C204.221 186.693 181.943 190.545 161.539 195.646C159.144 185.235 157.374 175.137 156.125 165.456C151.232 125.688 157.27 94.7699 171.324 86.5457C174.447 84.6719 178.507 83.839 183.296 83.839V60.624C174.551 60.624 166.64 62.4979 159.769 66.4538C130.516 83.3185 123.957 135.891 139.052 201.892C74.3002 221.88 32.1384 253.839 32.1384 287.569C32.1384 321.402 74.5084 353.466 139.469 373.35C124.478 439.559 131.14 492.236 160.498 509.1C167.264 513.056 175.176 514.93 183.921 514.93C212.549 514.93 250.026 494.526 287.92 459.131C325.813 494.318 363.29 514.514 391.919 514.514C400.663 514.514 408.575 512.64 415.446 508.684C444.699 491.819 451.257 439.247 436.163 373.246C500.706 353.362 542.868 321.298 542.868 287.569ZM407.326 218.132C403.474 231.561 398.685 245.407 393.272 259.253C389.004 250.925 384.527 242.596 379.635 234.268C374.846 225.94 369.745 217.82 364.644 209.908C379.426 212.094 393.688 214.801 407.326 218.132ZM359.647 329.002C351.527 343.056 343.198 356.381 334.558 368.769C319.047 370.123 303.327 370.851 287.503 370.851C271.784 370.851 256.064 370.123 240.657 368.873C232.016 356.485 223.584 343.264 215.464 329.314C207.552 315.677 200.369 301.831 193.811 287.881C200.265 273.931 207.552 259.981 215.36 246.344C223.48 232.29 231.808 218.965 240.449 206.577C255.96 205.223 271.68 204.495 287.503 204.495C303.223 204.495 318.942 205.223 334.35 206.472C342.99 218.861 351.423 232.082 359.543 246.032C367.455 259.669 374.638 273.515 381.196 287.465C374.638 301.415 367.454 315.364 359.647 329.002ZM393.272 315.468C398.894 329.418 403.682 343.368 407.638 356.901C394.001 360.233 379.635 363.044 364.748 365.23C369.849 357.214 374.95 348.99 379.739 340.557C384.527 332.229 389.004 323.797 393.272 315.468ZM287.712 426.546C278.03 416.553 268.348 405.414 258.771 393.233C268.14 393.65 277.718 393.962 287.399 393.962C297.185 393.962 306.867 393.754 316.34 393.233C306.971 405.414 297.289 416.553 287.712 426.546ZM210.259 365.23C195.476 363.044 181.214 360.337 167.577 357.006C171.428 343.576 176.217 329.731 181.63 315.885C185.899 324.213 190.375 332.541 195.268 340.87C200.161 349.198 205.158 357.318 210.259 365.23ZM287.191 148.591C296.873 158.585 306.554 169.724 316.132 181.904C306.762 181.488 297.185 181.175 287.503 181.175C277.718 181.175 268.036 181.384 258.563 181.904C267.932 169.724 277.614 158.585 287.191 148.591ZM210.155 209.908C205.054 217.924 199.953 226.148 195.164 234.58C190.375 242.909 185.899 251.237 181.63 259.565C176.009 245.615 171.22 231.665 167.264 218.132C180.902 214.905 195.268 212.094 210.155 209.908ZM115.941 340.245C79.0889 324.525 55.2493 303.913 55.2493 287.569C55.2493 271.225 79.0889 250.508 115.941 234.893C124.894 231.041 134.68 227.605 144.778 224.378C150.712 244.782 158.52 266.019 168.201 287.777C158.624 309.43 150.92 330.563 145.09 350.863C134.784 347.636 124.998 344.097 115.941 340.245ZM171.949 489.008C157.791 480.888 151.649 449.97 156.438 410.202C157.583 400.417 159.457 390.11 161.747 379.596C182.151 384.593 204.429 388.445 227.852 390.943C241.906 410.202 256.481 427.692 271.159 442.995C237.222 474.538 205.366 491.819 183.713 491.819C179.028 491.715 175.072 490.778 171.949 489.008ZM418.881 409.682C423.774 449.449 417.736 480.368 403.682 488.592C400.559 490.466 396.499 491.299 391.71 491.299C370.161 491.299 338.202 474.122 304.264 442.787C318.838 427.483 333.413 410.098 347.259 390.839C370.786 388.341 393.064 384.489 413.468 379.388C415.862 389.902 417.736 400 418.881 409.682ZM458.961 340.245C450.008 344.097 440.223 347.532 430.125 350.759C424.191 330.355 416.383 309.118 406.701 287.361C416.279 265.707 423.982 244.574 429.812 224.274C440.118 227.501 449.904 231.041 459.065 234.893C495.918 250.612 519.757 271.225 519.757 287.569C519.653 303.913 495.814 324.63 458.961 340.245Z" fill="#61DAFB"/>
<path d="M287.399 335.144C313.674 335.144 334.974 313.844 334.974 287.569C334.974 261.294 313.674 239.994 287.399 239.994C261.124 239.994 239.824 261.294 239.824 287.569C239.824 313.844 261.124 335.144 287.399 335.144Z" fill="#61DAFB"/>
</svg>
