<svg width="576" height="576" viewBox="0 0 576 576" fill="none" xmlns="http://www.w3.org/2000/svg">
<path d="M287.956 0L542.456 144V432L287.956 576L33.4559 432V144L287.956 0Z" fill="white"/>
<path d="M497.008 422.064L296.354 535.584V447.168L421.373 378.384L497.008 422.064ZM510.733 409.632V172.224L437.306 214.608V367.2L510.733 409.632ZM78.0882 422.064L278.742 535.584V447.168L153.723 378.384L78.0882 422.064V422.064ZM64.3626 409.632V172.224L137.79 214.608V367.2L64.3626 409.632V409.632ZM72.9531 156.864L278.742 40.416V125.904L146.908 198.432L145.9 199.008L72.9531 156.864V156.864ZM502.143 156.864L296.354 40.416V125.904L428.188 198.432L429.195 199.008L502.143 156.864V156.864Z" fill="#8ED6FB"/>
<path d="M278.742 427.056L155.403 359.232V224.832L278.742 296.064V427.056ZM296.355 427.056L419.693 359.232V224.832L296.355 296.064V427.056ZM163.754 209.28L287.572 141.168L411.391 209.28L287.572 280.8L163.754 209.28V209.28Z" fill="#1C78C0"/>
</svg>
