<svg width="512" height="512" viewBox="0 0 512 512" fill="none" xmlns="http://www.w3.org/2000/svg">
<path d="M243.682 3.23833L43.1249 119C35.6129 123.331 31 131.328 31 139.972V371.656C31 380.307 35.6093 388.297 43.1249 392.632L243.697 508.482C251.194 512.799 260.438 512.799 267.929 508.482L468.468 392.632C475.944 388.297 480.561 380.303 480.561 371.656V139.972C480.561 131.328 475.944 123.331 468.422 119L267.911 3.23833C264.151 1.08184 259.96 0 255.775 0C251.591 0 247.395 1.08184 243.636 3.23833" fill="url(#paint0_linear)"/>
<path d="M35.9792 386.366C37.8965 388.854 40.2958 391.014 43.12 392.632L215.165 492.005L243.82 508.475C248.105 510.949 252.989 511.999 257.787 511.642C259.387 511.514 260.986 511.214 262.55 510.771L474.072 123.463C472.455 121.702 470.563 120.228 468.438 118.989L337.117 43.1548L267.702 3.21321C265.731 2.07069 263.593 1.26022 261.415 0.688965L35.9792 386.366Z" fill="url(#paint1_linear)"/>
<path d="M253.378 0.136046C250.012 0.468088 246.723 1.51778 243.692 3.23869L43.7025 118.665L259.352 511.453C262.351 511.025 265.3 510.025 267.963 508.483L468.524 392.632C474.712 389.04 478.95 382.967 480.235 376.083L260.401 0.528786C258.784 0.211025 257.167 0.0432129 255.499 0.0432129C254.828 0.0432129 254.164 0.0753495 253.496 0.136046" fill="url(#paint2_linear)"/>
<defs>
<linearGradient id="paint0_linear" x1="331.88" y1="81.3835" x2="149.503" y2="413.302" gradientUnits="userSpaceOnUse">
<stop offset="0.3" stop-color="#3E863D"/>
<stop offset="0.5" stop-color="#55934F"/>
<stop offset="0.8" stop-color="#5AAD45"/>
</linearGradient>
<linearGradient id="paint1_linear" x1="131.424" y1="365.023" x2="406.118" y2="190.423" gradientUnits="userSpaceOnUse">
<stop offset="0.57" stop-color="#3E863D"/>
<stop offset="0.72" stop-color="#619857"/>
<stop offset="1" stop-color="#76AC64"/>
</linearGradient>
<linearGradient id="paint2_linear" x1="43.8497" y1="255.763" x2="480.318" y2="255.763" gradientUnits="userSpaceOnUse">
<stop offset="0.16" stop-color="#6BBF47"/>
<stop offset="0.38" stop-color="#79B461"/>
<stop offset="0.47" stop-color="#75AC64"/>
<stop offset="0.7" stop-color="#659E5A"/>
<stop offset="0.9" stop-color="#3E863D"/>
</linearGradient>
</defs>
</svg>
