<svg viewBox="0 0 896 640" fill="none" xmlns="http://www.w3.org/2000/svg">
<path fill-rule="evenodd" clip-rule="evenodd" d="M725.368 160.309C755.87 139.901 792.545 128 832 128C867.346 128 896 99.3467 896 64C896 28.6533 867.346 2.79753e-05 832 2.79753e-05C759.961 2.79753e-05 693.482 23.8045 640 63.9766C586.518 23.8045 520.039 3.43048e-05 448 4.19629e-05C375.961 3.62613e-05 309.482 23.8045 256 63.9766C202.518 23.8045 136.039 6.29783e-06 64.0001 0C28.6543 -3.09002e-06 2.54703e-05 28.6533 2.23802e-05 64C1.92901e-05 99.3467 28.6543 128 64 128C103.455 128 140.13 139.901 170.632 160.309C143.515 207.306 128 261.841 128 320C128 378.159 143.515 432.694 170.632 479.691C140.13 500.099 103.455 512 64 512C28.6543 512 0 540.653 0 576C-2.56222e-06 611.347 28.6543 640 64 640C136.039 640 202.518 616.195 256 576.023C309.482 616.195 375.961 640 448 640C520.039 640 586.518 616.195 640 576.023C693.482 616.195 759.961 640 832 640C867.346 640 896 611.347 896 576C896 540.653 867.346 512 832 512C792.545 512 755.87 500.099 725.368 479.691C752.485 432.694 768 378.159 768 320C768 261.841 752.485 207.307 725.368 160.309ZM384 320C384 378.159 368.485 432.694 341.368 479.691C371.87 500.099 408.545 512 448 512C487.455 512 524.13 500.099 554.632 479.691C527.515 432.694 512 378.159 512 320C512 261.841 527.515 207.306 554.632 160.309C524.13 139.901 487.455 128 448 128C408.545 128 371.87 139.901 341.368 160.309C368.485 207.307 384 261.841 384 320Z" fill="#40403D"/>
<path d="M256 320L384 320C384 496.731 240.731 640 64 640C28.6543 640 -2.56222e-06 611.347 0 576C0 540.653 28.6543 512 64 512C170.039 512 256 426.039 256 320Z" fill="#333230"/>
<path d="M448 640V512C341.961 512 256 426.039 256 320H128C128 496.731 271.269 640 448 640Z" fill="#40403D"/>
<path d="M768 320L640 320C640 426.039 554.039 512 448 512L448 640C624.731 640 768 496.731 768 320Z" fill="#333230"/>
<path d="M128 320L256 320C256 213.961 341.961 128 448 128L448 1.39876e-05C271.269 -1.46268e-06 128 143.269 128 320Z" fill="#333230"/>
<path d="M640 320C640 426.039 725.961 512 832 512C867.346 512 896 540.653 896 576C896 611.347 867.346 640 832 640C655.269 640 512 496.731 512 320H640Z" fill="#40403D"/>
<path d="M256 320C256 213.961 170.039 128 64 128C28.6543 128 1.92901e-05 99.3466 2.23802e-05 64C2.54703e-05 28.6533 28.6543 -3.10653e-05 64.0001 -2.79753e-05C240.731 -1.2525e-05 384 143.269 384 320L256 320Z" fill="#40403D"/>
<path d="M896 64C896 99.3467 867.346 128 832 128C725.961 128 640 213.961 640 320H512C512 143.269 655.269 0 832 0C867.346 0 896 28.6533 896 64Z" fill="#333230"/>
<path d="M448 -2.79753e-05L448 128C554.039 128 640 213.961 640 320L768 320C768 143.269 624.731 -4.7998e-06 448 -2.79753e-05Z" fill="#40403D"/>
</svg>
