<svg width="512" height="512" viewBox="0 0 512 512" fill="none" xmlns="http://www.w3.org/2000/svg">
<path fill-rule="evenodd" clip-rule="evenodd" d="M397.966 228.648C320.604 182.73 192.998 178.508 119.146 200.91C107.287 204.505 94.7462 197.814 91.1523 185.961C87.5585 174.103 94.2475 161.577 106.115 157.974C190.891 132.255 331.819 137.222 420.879 190.06C431.549 196.39 435.048 210.159 428.723 220.803C422.395 231.464 408.607 234.978 397.966 228.648ZM395.433 296.659C390.008 305.461 378.493 308.22 369.697 302.817C305.2 263.192 206.851 251.715 130.547 274.864C120.651 277.852 110.199 272.275 107.196 262.404C104.212 252.514 109.795 242.088 119.671 239.08C206.84 212.645 315.199 225.449 389.277 270.949C398.072 276.362 400.841 287.877 395.433 296.659ZM366.066 361.975C361.756 369.041 352.545 371.258 345.5 366.95C289.14 332.523 218.203 324.747 134.662 343.82C126.612 345.665 118.59 340.621 116.753 332.578C114.908 324.532 119.935 316.515 128.002 314.679C219.424 293.789 297.846 302.78 361.105 341.414C368.158 345.719 370.379 354.928 366.066 361.975ZM256.001 16C123.454 16 16 123.39 16 255.865C16 388.349 123.454 495.736 256.001 495.736C388.552 495.736 496 388.349 496 255.865C496 123.39 388.552 16 256.001 16Z" fill="#1DB954"/>
</svg>
