<svg width="1024" height="1024" viewBox="0 0 1024 1024" fill="none" xmlns="http://www.w3.org/2000/svg">
<g clip-path="url(#clip0)">
<path d="M222.329 921.73L12.3246 557.991C-4.1082 529.529 -4.1082 494.462 12.3246 465.999L222.329 102.262C238.762 73.7992 269.132 56.2656 301.997 56.2656H722.007C754.873 56.2656 785.242 73.7992 801.675 102.262L1011.68 465.999C1028.11 494.462 1028.11 529.529 1011.68 557.991L801.675 921.729C785.242 950.191 754.873 967.725 722.007 967.725H301.997C269.132 967.726 238.763 950.192 222.329 921.73Z" fill="url(#paint0_linear)"/>
<path opacity="0.07" d="M752.003 512.005L695.967 537.185L645.335 467.005L512.002 370.672L272 512.005L727.373 967.377C758.136 965.572 786.145 948.633 801.673 921.737L933.466 693.466L752.003 512.005Z" fill="black"/>
<path d="M512.002 332L272 512.002L512.002 692.003L752.003 512.002L512.002 332ZM362.001 512.002L512.002 407.001L662.002 512.002L512.002 617.002L362.001 512.002Z" fill="white"/>
<path d="M512.141 557C536.993 557 557.141 536.853 557.141 512C557.141 487.147 536.993 467 512.141 467C487.288 467 467.141 487.147 467.141 512C467.141 536.853 487.288 557 512.141 557Z" fill="white"/>
</g>
<defs>
<linearGradient id="paint0_linear" x1="512.002" y1="56.2656" x2="512.002" y2="966.312" gradientUnits="userSpaceOnUse">
<stop stop-color="#4387FD"/>
<stop offset="1" stop-color="#4683EA"/>
</linearGradient>
<clipPath id="clip0">
<rect width="1024" height="1024" fill="white"/>
</clipPath>
</defs>
</svg>
