<svg viewBox="0 0 512 512" fill="none" xmlns="http://www.w3.org/2000/svg">
<path class="bar-1" d="M0 128C0 110.327 14.3269 96 32 96V96C49.6731 96 64 110.327 64 128V384C64 401.673 49.6731 416 32 416V416C14.3269 416 0 401.673 0 384V128Z" fill="#D4D1C7"/>
<path class="bar-2" d="M96 128C96 110.327 110.327 96 128 96V96C145.673 96 160 110.327 160 128V384C160 401.673 145.673 416 128 416V416C110.327 416 96 401.673 96 384V128Z" fill="#D4D1C7"/>
<path class="bar-3" d="M192 128C192 110.327 206.327 96 224 96V96C241.673 96 256 110.327 256 128V384C256 401.673 241.673 416 224 416V416C206.327 416 192 401.673 192 384V128Z" fill="#D4D1C7"/>
<path class="bar-4" d="M288 128C288 110.327 302.327 96 320 96V96C337.673 96 352 110.327 352 128V384C352 401.673 337.673 416 320 416V416C302.327 416 288 401.673 288 384V128Z" fill="#D4D1C7"/>
<path class="bar-5" d="M384 128C384 110.327 398.327 96 416 96V96C433.673 96 448 110.327 448 128V384C448 401.673 433.673 416 416 416V416C398.327 416 384 401.673 384 384V128Z" fill="#D4D1C7"/>
<path class="bar-5" d="M480 192C480 183.163 487.163 176 496 176V176C504.837 176 512 183.163 512 192V320C512 328.837 504.837 336 496 336V336C487.163 336 480 328.837 480 320V192Z" fill="#D4D1C7"/>
</svg>
