<svg viewBox="0 0 512 512" fill="none" xmlns="http://www.w3.org/2000/svg">
<path d="M303.616 83.2875C305.432 75.5964 300.695 67.8718 292.439 65.0608C284.183 62.2497 274.852 65.1844 270.422 71.9855L138.422 274.65C135.198 279.6 135.192 285.703 138.406 290.658C141.62 295.613 147.565 298.666 154 298.666H239.081L208.384 428.712C206.568 436.404 211.305 444.128 219.561 446.939C227.817 449.75 237.148 446.816 241.578 440.014L373.578 237.35C376.802 232.4 376.808 226.297 373.594 221.342C370.38 216.387 364.435 213.334 358 213.334H272.919L303.616 83.2875Z" fill="#D4D1C7"/>
</svg>
