<svg viewBox="0 0 512 512" fill="none" xmlns="http://www.w3.org/2000/svg">
<path class="bar-1" d="M144 320C144 302.327 129.673 288 112 288C94.3267 288 80 302.327 80 320V384C80 401.673 94.3267 416 112 416C129.673 416 144 401.673 144 384V320Z" fill="#E3E1DA"/>
<path class="bar-2" d="M240 256C240 238.327 225.673 224 208 224C190.327 224 176 238.327 176 256V384C176 401.673 190.327 416 208 416C225.673 416 240 401.673 240 384V256Z" fill="#E3E1DA"/>
<path class="bar-3" d="M336 192C336 174.327 321.673 160 304 160C286.327 160 272 174.327 272 192V384C272 401.673 286.327 416 304 416C321.673 416 336 401.673 336 384V192Z" fill="#E3E1DA"/>
<path class="bar-4" d="M432 128C432 110.327 417.673 96 400 96C382.327 96 368 110.327 368 128V384C368 401.673 382.327 416 400 416C417.673 416 432 401.673 432 384V128Z" fill="#E3E1DA"/>
</svg>
