<svg viewBox="0 0 512 512" fill="none" xmlns="http://www.w3.org/2000/svg">
<path d="M401.958 283.174L434.95 302.218C438.718 304.393 440.467 308.89 439.177 313.046C430.607 340.639 415.974 365.568 396.837 386.273C395.405 387.824 393.488 388.841 391.401 389.158C389.315 389.475 387.182 389.073 385.354 388.018L352.386 368.977C338.515 380.862 322.568 390.083 305.347 396.174V434.251C305.347 436.362 304.628 438.411 303.309 440.06C301.989 441.709 300.148 442.86 298.087 443.323C271.025 449.4 241.959 449.714 213.531 443.328C209.281 442.373 206.251 438.609 206.251 434.252V396.174C189.03 390.083 173.083 380.862 159.212 368.977L126.244 388.018C124.416 389.073 122.283 389.475 120.197 389.158C118.11 388.841 116.193 387.824 114.761 386.273C95.6246 365.568 80.9916 340.639 72.4213 313.046C71.1307 308.891 72.8796 304.394 76.6476 302.218L109.641 283.174C106.327 265.21 106.327 246.791 109.641 228.827L76.6484 209.782C72.8804 207.608 71.1315 203.11 72.4221 198.955C80.9924 171.361 95.6246 146.433 114.762 125.728C116.194 124.177 118.111 123.16 120.197 122.843C122.284 122.526 124.417 122.928 126.245 123.983L159.213 143.024C173.084 131.139 189.031 121.918 206.252 115.826V77.7493C206.252 75.6375 206.971 73.5886 208.29 71.9398C209.61 70.2909 211.451 69.1403 213.512 68.6774C240.574 62.6 269.64 62.2856 298.068 68.672C302.318 69.6265 305.348 73.3914 305.348 77.7478V115.826C322.569 121.917 338.516 131.138 352.387 143.023L385.355 123.982C387.183 122.927 389.316 122.525 391.402 122.842C393.489 123.159 395.406 124.176 396.838 125.727C415.974 146.432 430.607 171.361 439.178 198.954C440.468 203.109 438.719 207.606 434.951 209.782L401.958 228.826C405.271 246.79 405.271 265.21 401.958 283.174ZM317.735 256C317.735 221.849 289.951 194.065 255.799 194.065C221.648 194.065 193.864 221.849 193.864 256C193.864 290.151 221.648 317.935 255.799 317.935C289.951 317.935 317.735 290.151 317.735 256Z" fill="#D4D1C7"/>
</svg>
