<svg viewBox="0 0 512 512" fill="none" xmlns="http://www.w3.org/2000/svg">
<path d="M406.752 322.311C387.965 337.558 367.28 350.196 344.848 359.098L385.633 429.739L426.094 447.019C433.452 450.162 441.762 445.362 442.722 437.419L447.987 393.732L406.752 322.311V322.311ZM438.619 251.392C442.264 245.64 440.037 237.9 434.082 234.6L413.03 222.923C407.42 219.81 400.572 221.828 397.085 227.212C366.253 274.859 313.184 303.996 255.997 303.996C238.05 303.996 220.575 300.809 203.94 295.349L254.46 207.84C254.985 207.855 255.465 207.998 255.99 207.998C256.515 207.998 257.002 207.855 257.52 207.84L295.836 274.214C319.259 267.494 340.506 254.902 357.793 237.525L318.951 170.243C324.538 160.021 327.996 148.471 327.996 135.999C327.996 96.2345 295.761 64 255.997 64C216.233 64 183.998 96.2345 183.998 135.999C183.998 148.471 187.456 160.021 193.036 170.243L141.811 258.974C132.399 250.267 123.842 240.532 116.552 229.725C112.959 224.4 106.074 222.51 100.517 225.727L79.7048 237.78C73.8173 241.185 71.7324 248.955 75.4748 254.632C87.1521 272.362 101.492 287.789 117.459 301.146L64 393.74L69.2649 437.427C70.2249 445.369 78.5348 450.169 85.8922 447.027L126.354 429.747L179.453 337.776C203.595 346.956 229.462 351.996 255.997 351.996C330.283 351.996 399.155 313.739 438.619 251.392ZM255.997 111.999C269.249 111.999 279.997 122.747 279.997 135.999C279.997 149.251 269.249 159.999 255.997 159.999C242.745 159.999 231.997 149.251 231.997 135.999C231.997 122.747 242.745 111.999 255.997 111.999Z" fill="#D4D1C7"/>
</svg>
