<svg viewBox="0 0 512 512" fill="none" xmlns="http://www.w3.org/2000/svg">
<path d="M192.439 370.471C192.439 372.019 190.658 373.258 188.413 373.258C185.858 373.49 184.077 372.252 184.077 370.471C184.077 368.923 185.858 367.684 188.103 367.684C190.426 367.452 192.439 368.69 192.439 370.471ZM168.361 366.987C167.819 368.535 169.368 370.316 171.69 370.781C173.703 371.555 176.026 370.781 176.49 369.232C176.955 367.684 175.484 365.903 173.161 365.206C171.148 364.665 168.903 365.439 168.361 366.987ZM202.581 365.671C200.335 366.213 198.787 367.684 199.019 369.465C199.252 371.013 201.265 372.019 203.587 371.477C205.832 370.935 207.381 369.465 207.148 367.916C206.916 366.445 204.826 365.439 202.581 365.671ZM253.523 69C146.142 69 64 150.523 64 257.903C64 343.761 118.039 417.232 195.226 443.09C205.135 444.871 208.619 438.755 208.619 433.723C208.619 428.923 208.387 402.445 208.387 386.187C208.387 386.187 154.194 397.8 142.813 363.116C142.813 363.116 133.987 340.587 121.29 334.781C121.29 334.781 103.561 322.626 122.529 322.858C122.529 322.858 141.806 324.406 152.413 342.832C169.368 372.716 197.781 364.123 208.852 359.013C210.632 346.626 215.665 338.032 221.239 332.923C177.961 328.123 134.297 321.852 134.297 247.374C134.297 226.084 140.181 215.4 152.568 201.774C150.555 196.742 143.974 175.994 154.581 149.206C170.761 144.174 208 170.11 208 170.11C223.484 165.774 240.129 163.529 256.619 163.529C273.11 163.529 289.755 165.774 305.239 170.11C305.239 170.11 342.477 144.097 358.658 149.206C369.265 176.071 362.684 196.742 360.671 201.774C373.058 215.477 380.645 226.161 380.645 247.374C380.645 322.084 335.045 328.045 291.768 332.923C298.89 339.039 304.929 350.652 304.929 368.845C304.929 394.935 304.697 427.219 304.697 433.568C304.697 438.6 308.258 444.716 318.09 442.935C395.51 417.232 448 343.761 448 257.903C448 150.523 360.903 69 253.523 69ZM139.252 336.019C138.245 336.794 138.477 338.574 139.794 340.045C141.032 341.284 142.813 341.826 143.819 340.819C144.826 340.045 144.594 338.265 143.277 336.794C142.039 335.555 140.258 335.013 139.252 336.019ZM130.89 329.748C130.348 330.755 131.123 331.994 132.671 332.768C133.91 333.542 135.458 333.31 136 332.226C136.542 331.219 135.768 329.981 134.219 329.206C132.671 328.742 131.432 328.974 130.89 329.748ZM155.974 357.31C154.735 358.316 155.2 360.639 156.981 362.11C158.761 363.89 161.006 364.123 162.013 362.884C163.019 361.877 162.555 359.555 161.006 358.084C159.303 356.303 156.981 356.071 155.974 357.31ZM147.148 345.929C145.91 346.703 145.91 348.716 147.148 350.497C148.387 352.277 150.477 353.052 151.484 352.277C152.723 351.271 152.723 349.258 151.484 347.477C150.4 345.697 148.387 344.923 147.148 345.929Z" fill="#D4D1C7"/>
</svg>
