<svg viewBox="0 0 512 512" fill="none" xmlns="http://www.w3.org/2000/svg">
<circle opacity="0.5" cx="112" cy="160" r="32" fill="#D4D1C7"/>
<circle opacity="0.5" cx="112" cy="256" r="32" fill="#D4D1C7"/>
<circle opacity="0.5" cx="112" cy="352" r="32" fill="#D4D1C7"/>
<path d="M176 160C176 142.327 190.327 128 208 128H400C417.673 128 432 142.327 432 160C432 177.673 417.673 192 400 192H208C190.327 192 176 177.673 176 160Z" fill="#D4D1C7"/>
<path d="M176 256C176 238.327 190.327 224 208 224H400C417.673 224 432 238.327 432 256C432 273.673 417.673 288 400 288H208C190.327 288 176 273.673 176 256Z" fill="#D4D1C7"/>
<path d="M176 352C176 334.327 190.327 320 208 320H400C417.673 320 432 334.327 432 352C432 369.673 417.673 384 400 384H208C190.327 384 176 369.673 176 352Z" fill="#D4D1C7"/>
</svg>
