<svg viewBox="0 0 512 512" fill="none" xmlns="http://www.w3.org/2000/svg">
<path fill-rule="evenodd" clip-rule="evenodd" d="M123.886 195.657C123.886 122.945 182.831 64 255.543 64C328.255 64 387.2 122.945 387.2 195.657V217.6C411.438 217.6 431.086 237.248 431.086 261.486V404.114C431.086 428.352 411.438 448 387.2 448H123.886C99.648 448 80 428.352 80 404.114V261.486C80 237.248 99.648 217.6 123.886 217.6V195.657ZM255.543 107.886C304.018 107.886 343.314 147.182 343.314 195.657V217.6H167.771V195.657C167.771 147.182 207.068 107.886 255.543 107.886Z" fill="#E3E1DA"/>
</svg>
