<svg viewBox="0 0 512 512" fill="none" xmlns="http://www.w3.org/2000/svg">
<circle cx="160.057" cy="352.033" r="64" fill="#D4D1C7"/>
<path d="M132.638 162.001C151.299 159.308 169.72 159.396 187.481 161.951L187.474 162C200.487 163.878 213.007 167.019 224.925 171.283C251.723 180.926 276.004 196.417 295.999 216.43C315.766 236.278 331.091 260.319 340.688 286.834C345.011 298.852 348.194 311.482 350.088 324.615L350.138 324.608C352.693 342.369 352.781 360.79 350.088 379.45C347.565 396.942 359.699 413.169 377.191 415.692C394.683 418.216 410.909 406.082 413.433 388.59C419.649 345.506 414.749 303.383 400.906 265.123C387.964 229.139 367.348 197.275 341.265 171.182C315.022 144.846 282.91 124.051 246.618 111.058C208.451 97.3104 166.452 92.4594 123.499 98.6567C106.007 101.18 93.8728 117.406 96.3965 134.898C98.9203 152.391 115.147 164.525 132.638 162.001Z" fill="#D4D1C7"/>
<path opacity="0.5" d="M252.999 327.995L253.016 327.991C256.979 343.258 257.228 359.716 252.999 376.069C248.574 393.179 258.857 410.637 275.968 415.062C293.078 419.487 310.536 409.203 314.961 392.093C323.555 358.862 321.053 325.368 309.764 295.533L309.751 295.5L309.738 295.467C301.539 273.688 288.933 254.574 273.229 238.894L273.209 238.874L273.187 238.853C257.504 223.147 238.386 210.541 216.602 202.343L216.597 202.341L216.587 202.337C186.745 191.038 153.239 188.531 119.996 197.128C102.886 201.553 92.602 219.011 97.027 236.121C101.452 253.232 118.91 263.515 136.02 259.09C152.373 254.861 168.831 255.11 184.098 259.073L184.093 259.09C187.504 259.972 190.824 261.027 194.046 262.242C204.913 266.367 214.969 272.435 223.686 280.136C225.145 281.424 226.566 282.758 227.947 284.136C237.571 293.778 245.038 305.366 249.853 318.06C251.066 321.277 252.118 324.591 252.999 327.995Z" fill="#D4D1C7"/>
</svg>
