<svg width="512" height="512" viewBox="0 0 512 512" fill="none" xmlns="http://www.w3.org/2000/svg">
<path d="M73.559 387.405L55.1577 376.781L260.15 21.7344L278.551 32.3584L73.559 387.405Z" fill="#E10098"/>
<path d="M50.944 348.416H460.928V369.664H50.944V348.416Z" fill="#E10098"/>
<path d="M264.125 478.753L59.0566 360.353L69.6806 341.952L274.749 460.352L264.125 478.753ZM442.268 170.172L237.199 51.7721L247.823 33.3708L452.892 151.771L442.268 170.172Z" fill="#E10098"/>
<path d="M69.737 170.09L59.113 151.69L264.182 33.2903L274.806 51.6916L69.737 170.09Z" fill="#E10098"/>
<path d="M438.487 387.409L233.495 32.3623L251.896 21.7383L456.888 376.785L438.487 387.409ZM67.2 137.6H88.4479V374.4H67.2V137.6ZM423.552 137.6H444.8V374.4H423.552V137.6Z" fill="#E10098"/>
<path d="M260.508 469.76L251.228 453.686L429.583 350.71L438.863 366.783L260.508 469.76Z" fill="#E10098"/>
<path d="M472.96 381.312C460.672 402.688 433.28 409.984 411.904 397.696C390.528 385.408 383.232 358.016 395.52 336.64C407.808 315.264 435.2 307.968 456.576 320.256C478.08 332.672 485.376 359.936 472.96 381.312ZM116.352 175.36C104.064 196.736 76.6719 204.032 55.2959 191.744C33.9199 179.456 26.6239 152.064 38.9119 130.688C51.1999 109.312 78.5919 102.016 99.9679 114.304C121.344 126.72 128.64 153.984 116.352 175.36ZM39.0399 381.312C26.7519 359.936 34.0479 332.672 55.4239 320.256C76.7999 307.968 104.064 315.264 116.48 336.64C128.768 358.016 121.472 385.28 100.096 397.696C78.5919 409.984 51.3279 402.688 39.0399 381.312ZM395.648 175.36C383.36 153.984 390.656 126.72 412.032 114.304C433.408 102.016 460.672 109.312 473.088 130.688C485.376 152.064 478.08 179.328 456.704 191.744C435.328 204.032 407.936 196.736 395.648 175.36ZM256 506.624C231.296 506.624 211.328 486.656 211.328 461.952C211.328 437.248 231.296 417.28 256 417.28C280.704 417.28 300.672 437.248 300.672 461.952C300.672 486.528 280.704 506.624 256 506.624ZM256 94.72C231.296 94.72 211.328 74.752 211.328 50.048C211.328 25.344 231.296 5.37598 256 5.37598C280.704 5.37598 300.672 25.344 300.672 50.048C300.672 74.752 280.704 94.72 256 94.72Z" fill="#E10098"/>
</svg>
