<svg width="576" height="576" viewBox="0 0 576 576" fill="none" xmlns="http://www.w3.org/2000/svg">
<path d="M259.711 568.204L259.731 568.215C277.107 578.219 298.521 578.226 315.906 568.208L315.921 568.2L516.497 452.328L516.518 452.316C533.847 442.269 544.561 423.739 544.561 403.656V171.972C544.561 151.881 533.831 133.318 516.405 123.278L315.872 7.50287L315.833 7.48054C307.161 2.50669 297.47 0 287.775 0C278.085 0 268.389 2.50439 259.714 7.48054L268.24 22.3441L259.685 7.5237L59.1317 123.283L59.1281 123.285C41.7138 133.332 31 151.894 31 171.972V403.656C31 423.739 41.7082 442.291 59.1197 452.341L259.711 568.204Z" fill="#FCFCFA"/>
<path d="M275.682 35.2383L75.1249 151C67.6129 155.331 63 163.328 63 171.972V403.656C63 412.307 67.6093 420.297 75.1249 424.632L275.697 540.482C283.194 544.799 292.438 544.799 299.929 540.482L500.468 424.632C507.944 420.297 512.561 412.303 512.561 403.656V171.972C512.561 163.328 507.944 155.331 500.422 151L299.911 35.2383C296.151 33.0818 291.96 32 287.775 32C283.591 32 279.395 33.0818 275.636 35.2383" fill="url(#paint0_linear)"/>
<path d="M67.9792 418.366C69.8965 420.854 72.2958 423.014 75.12 424.632L247.165 524.005L275.82 540.475C280.105 542.949 284.989 543.999 289.787 543.642C291.387 543.514 292.986 543.214 294.55 542.771L506.072 155.463C504.455 153.702 502.563 152.228 500.438 150.989L369.117 75.1548L299.702 35.2132C297.731 34.0707 295.593 33.2602 293.415 32.689L67.9792 418.366Z" fill="url(#paint1_linear)"/>
<path d="M285.378 32.1358C282.012 32.4678 278.723 33.5175 275.692 35.2384L75.7024 150.664L291.352 543.453C294.351 543.025 297.3 542.025 299.963 540.483L500.524 424.632C506.712 421.04 510.95 414.967 512.235 408.083L292.401 32.5285C290.784 32.2108 289.167 32.043 287.499 32.043C286.828 32.043 286.164 32.0751 285.496 32.1358" fill="url(#paint2_linear)"/>
<defs>
<linearGradient id="paint0_linear" x1="363.88" y1="113.383" x2="181.503" y2="445.302" gradientUnits="userSpaceOnUse">
<stop offset="0.3" stop-color="#3E863D"/>
<stop offset="0.5" stop-color="#55934F"/>
<stop offset="0.8" stop-color="#5AAD45"/>
</linearGradient>
<linearGradient id="paint1_linear" x1="163.424" y1="397.023" x2="438.118" y2="222.423" gradientUnits="userSpaceOnUse">
<stop offset="0.57" stop-color="#3E863D"/>
<stop offset="0.72" stop-color="#619857"/>
<stop offset="1" stop-color="#76AC64"/>
</linearGradient>
<linearGradient id="paint2_linear" x1="75.8497" y1="287.762" x2="512.318" y2="287.762" gradientUnits="userSpaceOnUse">
<stop offset="0.16" stop-color="#6BBF47"/>
<stop offset="0.38" stop-color="#79B461"/>
<stop offset="0.47" stop-color="#75AC64"/>
<stop offset="0.7" stop-color="#659E5A"/>
<stop offset="0.9" stop-color="#3E863D"/>
</linearGradient>
</defs>
</svg>
