<svg width="1024" height="1024" viewBox="0 0 1024 1024" fill="none" xmlns="http://www.w3.org/2000/svg">
<path d="M342.503 803.923C342.503 808.052 337.755 811.355 331.768 811.355C324.955 811.974 320.206 808.671 320.206 803.923C320.206 799.794 324.955 796.49 330.942 796.49C337.135 795.871 342.503 799.174 342.503 803.923ZM278.297 794.632C276.852 798.761 280.981 803.51 287.174 804.748C292.542 806.813 298.735 804.748 299.974 800.619C301.213 796.49 297.29 791.742 291.097 789.884C285.729 788.439 279.742 790.503 278.297 794.632ZM369.548 791.123C363.561 792.568 359.432 796.49 360.052 801.239C360.671 805.368 366.039 808.052 372.232 806.606C378.219 805.161 382.348 801.239 381.729 797.11C381.11 793.187 375.535 790.503 369.548 791.123ZM505.394 0C219.045 0 0 217.394 0 503.742C0 732.697 144.103 928.619 349.935 997.574C376.361 1002.32 385.652 986.013 385.652 972.594C385.652 959.794 385.032 889.187 385.032 845.832C385.032 845.832 240.516 876.8 210.168 784.31C210.168 784.31 186.632 724.232 152.774 708.748C152.774 708.748 105.497 676.335 156.077 676.955C156.077 676.955 207.484 681.084 235.768 730.219C280.981 809.91 356.748 786.994 386.271 773.368C391.019 740.335 404.439 717.419 419.303 703.794C303.897 690.994 187.458 674.271 187.458 475.664C187.458 418.89 203.148 390.4 236.181 354.065C230.813 340.645 213.265 285.316 241.548 213.884C284.697 200.465 384 269.626 384 269.626C425.29 258.065 469.677 252.077 513.652 252.077C557.626 252.077 602.013 258.065 643.303 269.626C643.303 269.626 742.606 200.258 785.755 213.884C814.039 285.523 796.49 340.645 791.123 354.065C824.155 390.606 844.387 419.097 844.387 475.664C844.387 674.89 722.787 690.787 607.381 703.794C626.374 720.103 642.477 751.071 642.477 799.587C642.477 869.161 641.858 955.252 641.858 972.181C641.858 985.6 651.355 1001.91 677.574 997.161C884.026 928.619 1024 732.697 1024 503.742C1024 217.394 791.742 0 505.394 0ZM200.671 712.052C197.987 714.116 198.606 718.865 202.116 722.787C205.419 726.09 210.168 727.535 212.852 724.852C215.535 722.787 214.916 718.039 211.406 714.116C208.103 710.813 203.355 709.368 200.671 712.052ZM178.374 695.329C176.929 698.013 178.994 701.316 183.123 703.381C186.426 705.445 190.555 704.826 192 701.935C193.445 699.252 191.381 695.948 187.252 693.884C183.123 692.645 179.819 693.264 178.374 695.329ZM245.265 768.826C241.961 771.51 243.2 777.703 247.948 781.626C252.697 786.374 258.684 786.994 261.368 783.69C264.052 781.006 262.813 774.813 258.684 770.89C254.142 766.142 247.948 765.523 245.265 768.826ZM221.729 738.477C218.426 740.542 218.426 745.91 221.729 750.658C225.032 755.406 230.606 757.471 233.29 755.406C236.594 752.723 236.594 747.355 233.29 742.606C230.4 737.858 225.032 735.794 221.729 738.477Z" fill="#171414"/>
</svg>
