<svg width="576" height="576" viewBox="0 0 576 576" fill="none" xmlns="http://www.w3.org/2000/svg">
<path fill-rule="evenodd" clip-rule="evenodd" d="M427.751 3.44312C417.875 -0.665303 406.6 0.432097 397.702 6.36773C388.804 12.3034 383.46 22.2923 383.46 32.9884V132.976C381.915 121.965 374.715 112.409 364.284 107.977L294.124 78.1651C282.176 73.0885 268.345 75.7327 259.113 84.8586L161.622 181.227L113.174 144.741C104.763 138.406 93.7736 136.615 83.7861 139.951L54.7171 149.659C44.1699 153.182 36.2076 161.928 33.6872 172.758C31.1668 183.589 34.4497 194.951 42.358 202.769L91.094 250.945L42.3586 299.119C34.4505 306.936 31.1672 318.298 33.6867 329.128C36.2062 339.958 44.1672 348.704 54.7135 352.228L83.7825 361.94C93.7712 365.278 104.763 363.487 113.175 357.151L161.625 320.66L257.256 415.19L37.6744 382.577C21.2794 380.142 5.73855 390.629 1.86111 406.744C-2.01633 422.859 7.05313 439.267 22.7613 444.557L405.248 573.35C412.596 575.824 420.592 575.546 427.75 572.568L555.26 519.526C567.194 514.562 574.969 502.906 574.969 489.981V95.5619C575.026 94.4673 575.026 93.3713 574.969 92.2783V86.0344C574.969 73.1095 567.194 61.4536 555.261 56.4891L427.751 3.44312ZM299.439 421.455L383.46 433.934V368.905C381.915 379.916 374.714 389.472 364.284 393.904L299.439 421.455Z" fill="#FCFCFA"/>
<path fill-rule="evenodd" clip-rule="evenodd" d="M415.46 32.9883V471.038L32.9732 414.23L415.46 543.023L542.969 489.981V93.9385L543.012 93.9193L542.969 93.835V86.0343L415.46 32.9883Z" fill="#007ACC"/>
<path fill-rule="evenodd" clip-rule="evenodd" d="M281.609 107.617L164.456 223.421L93.9234 170.303L64.8544 180.011L136.613 250.946L64.8544 321.877L93.9234 331.59L164.456 278.467H164.46L281.605 394.264L351.77 364.452V137.429L281.609 107.617ZM281.605 190.245V311.632L201.008 250.939L281.605 190.245Z" fill="#007ACC"/>
</svg>
